<svg width="166" height="44" viewBox="0 0 166 44" fill="none" xmlns="http://www.w3.org/2000/svg">
<path d="M151.626 0.000140926H14.016C13.5144 0.000140926 13.0188 0.000140926 12.5186 0.00230903C12.0998 0.00447712 11.6843 0.0107754 11.2615 0.0160764C10.343 0.0246424 9.42664 0.088682 8.5204 0.207638C7.61545 0.329185 6.73883 0.558334 5.92021 0.887338C5.1026 1.21912 4.35553 1.65024 3.70609 2.16507C3.05324 2.67843 2.50904 3.27182 2.09441 3.9224C1.67865 4.57169 1.39034 5.26747 1.23948 5.98569C1.08718 6.70302 1.00523 7.4286 0.994357 8.15596C0.981663 8.48833 0.980322 8.8218 0.973633 9.15421V34.2112C0.980322 34.5478 0.981663 34.8738 0.994357 35.2105C1.00523 35.9379 1.08719 36.6635 1.23948 37.3808C1.38993 38.0994 1.67824 38.7956 2.09441 39.4451C2.50885 40.0936 3.05313 40.6846 3.70609 41.1951C4.35306 41.7122 5.10062 42.1435 5.92021 42.4729C6.73883 42.8027 7.61535 43.0333 8.5204 43.1567C9.42679 43.2747 10.3431 43.3387 11.2615 43.3483C11.6843 43.3557 12.0998 43.3599 12.5186 43.3599C13.0188 43.3621 13.5145 43.3621 14.016 43.3621H151.626C152.117 43.3621 152.617 43.3621 153.108 43.3599C153.525 43.3599 153.952 43.3557 154.369 43.3483C155.286 43.3392 156.201 43.2752 157.105 43.1567C158.013 43.0323 158.893 42.8019 159.715 42.4729C160.534 42.1434 161.282 41.712 161.928 41.1951C162.579 40.6825 163.124 40.092 163.544 39.4451C163.956 38.795 164.243 38.099 164.391 37.3808C164.544 36.6633 164.628 35.9379 164.644 35.2105C164.65 34.8738 164.65 34.5478 164.65 34.2112C164.661 33.8174 164.661 33.4256 164.661 33.0255V10.3378C164.661 9.94078 164.661 9.54697 164.65 9.15421C164.65 8.8218 164.65 8.48833 164.644 8.15592C164.628 7.4285 164.544 6.70306 164.391 5.98566C164.243 5.26784 163.956 4.57212 163.544 3.92236C162.699 2.61834 161.361 1.55686 159.715 0.887239C158.893 0.559041 158.013 0.329953 157.105 0.207541C156.201 0.0880603 155.286 0.0239984 154.369 0.0159246C153.952 0.0106345 153.525 0.00428199 153.108 0.0021681C152.617 0 152.117 0.000140926 151.626 0.000140926Z" fill="#E3E8EA"/>
<path d="M12.7885 42.3742C12.3735 42.3742 11.9685 42.37 11.5566 42.3626C10.7036 42.3538 9.85247 42.2949 9.01035 42.1862C8.22513 42.0788 7.46445 41.879 6.75342 41.5933C6.04891 41.3101 5.40634 40.9387 4.85033 40.4933C4.28626 40.0532 3.81665 39.5428 3.46011 38.9822C3.09964 38.418 2.85017 37.8133 2.72039 37.189C2.58025 36.5183 2.50442 35.84 2.49357 35.1602C2.48493 34.932 2.47363 34.1721 2.47363 34.1721V9.17585C2.47363 9.17585 2.48567 8.4277 2.49364 8.20791C2.50403 7.52911 2.57942 6.85193 2.71914 6.18221C2.84915 5.55625 3.09881 4.94976 3.45949 4.38371C3.81472 3.82354 4.28172 3.31272 4.84238 2.87104C5.40241 2.42517 6.04705 2.05184 6.75276 1.76467C7.46216 1.47995 8.22139 1.28155 9.00503 1.17609C9.84991 1.06633 10.7039 1.00699 11.56 0.998564L12.7892 0.985352H152.788L154.033 0.999095C154.88 1.0071 155.727 1.06591 156.564 1.17502C157.356 1.28181 158.122 1.4816 158.84 1.76784C160.254 2.34657 161.404 3.26218 162.13 4.38635C162.485 4.9485 162.731 5.55005 162.859 6.17058C163.001 6.8458 163.079 7.52831 163.096 8.21267C163.1 8.51911 163.1 8.84827 163.1 9.17585C163.111 9.58163 163.111 9.96785 163.111 10.3572V33.0034C163.111 33.3965 163.111 33.7801 163.1 34.1668C163.1 34.5187 163.1 34.8411 163.094 35.1728C163.078 35.845 163.001 36.5153 162.862 37.1784C162.734 37.8071 162.486 38.4166 162.126 38.9854C161.767 39.5399 161.3 40.0459 160.743 40.4849C160.186 40.9326 159.542 41.3062 158.836 41.5912C158.12 41.8791 157.355 42.0796 156.564 42.1862C155.722 42.2955 154.871 42.3544 154.018 42.3626C153.618 42.37 153.2 42.3742 152.795 42.3742L151.319 42.3764L12.7885 42.3742Z" fill="#24272C"/>
<path d="M30.1238 22.009C30.1362 21.1041 30.3929 20.217 30.87 19.43C31.347 18.643 32.0289 17.9818 32.8523 17.5079C32.3293 16.8085 31.6393 16.233 30.8371 15.8269C30.0349 15.4209 29.1426 15.1956 28.2312 15.1688C26.287 14.9778 24.4021 16.2582 23.4114 16.2582C22.4014 16.2582 20.876 15.1878 19.2334 15.2195C18.1709 15.2516 17.1354 15.5409 16.2278 16.0592C15.3203 16.5774 14.5714 17.3069 14.0546 18.1766C11.8153 21.8065 13.4856 27.1411 15.6306 30.0752C16.7037 31.5121 17.9579 33.1169 19.5991 33.0601C21.2051 32.9977 21.8049 32.1012 23.7435 32.1012C25.664 32.1012 26.2267 33.0601 27.9011 33.0238C29.6244 32.9977 30.7102 31.5807 31.7457 30.1304C32.5167 29.1067 33.1102 27.9752 33.5037 26.7779C32.5026 26.3814 31.6482 25.7179 31.0471 24.8697C30.4461 24.0217 30.125 23.0268 30.1238 22.009Z" fill="white"/>
<path d="M26.9616 13.2391C27.9011 12.183 28.3641 10.8256 28.252 9.45508C26.8165 9.59625 25.4905 10.2386 24.5382 11.2542C24.0726 11.7503 23.7159 12.3275 23.4888 12.9528C23.2616 13.578 23.1681 14.2391 23.214 14.8981C23.932 14.905 24.6424 14.7593 25.2915 14.4719C25.9406 14.1845 26.5117 13.7631 26.9616 13.2391Z" fill="white"/>
<path d="M50.4259 29.4219H44.9455L43.6295 33.0604H41.3081L46.4991 19.5986H48.9108L54.1018 33.0604H51.7409L50.4259 29.4219ZM45.5131 27.7428H49.8573L47.7158 21.8378H47.6558L45.5131 27.7428Z" fill="white"/>
<path d="M65.3123 28.154C65.3123 31.204 63.5687 33.1635 60.9376 33.1635C60.2712 33.1961 59.6083 33.0523 59.025 32.7487C58.4417 32.445 57.9615 31.9937 57.6395 31.4463H57.5897V36.3076H55.438V23.2461H57.5207V24.8785H57.5603C57.8971 24.3338 58.3854 23.8848 58.9732 23.5792C59.5609 23.2738 60.2261 23.1231 60.898 23.1434C63.5585 23.1434 65.3123 25.1125 65.3123 28.154ZM63.1006 28.154C63.1006 26.1669 62.0038 24.8606 60.3304 24.8606C58.6865 24.8606 57.5807 26.1945 57.5807 28.154C57.5807 30.1315 58.6865 31.4559 60.3304 31.4559C62.0038 31.4559 63.1006 30.1591 63.1006 28.154Z" fill="white"/>
<path d="M76.8494 28.154C76.8494 31.204 75.1059 33.1635 72.4749 33.1635C71.8083 33.1961 71.1455 33.0523 70.5621 32.7487C69.9789 32.445 69.4987 31.9937 69.1766 31.4463H69.1268V36.3076H66.9751V23.2461H69.0578V24.8785H69.0974C69.4344 24.3338 69.9226 23.8848 70.5104 23.5792C71.0981 23.2738 71.7633 23.1231 72.4353 23.1434C75.0958 23.1434 76.8494 25.1125 76.8494 28.154ZM74.6378 28.154C74.6378 26.1669 73.5411 24.8606 71.8677 24.8606C70.2236 24.8606 69.1178 26.1945 69.1178 28.154C69.1178 30.1315 70.2236 31.4559 71.8677 31.4559C73.5411 31.4559 74.6378 30.1591 74.6378 28.154Z" fill="white"/>
<path d="M84.4765 29.3095C84.6359 30.6444 86.021 31.5209 87.9138 31.5209C89.7274 31.5209 91.0321 30.6444 91.0321 29.4408C91.0321 28.3959 90.2452 27.7701 88.3818 27.3414L86.5185 26.9212C83.8784 26.3241 82.6527 25.168 82.6527 23.2921C82.6527 20.9694 84.8146 19.374 87.8844 19.374C90.9225 19.374 93.0052 20.9694 93.0753 23.2921H90.9033C90.7732 21.9487 89.5872 21.1377 87.8538 21.1377C86.1204 21.1377 84.9344 21.9582 84.9344 23.1523C84.9344 24.1041 85.6919 24.6641 87.5451 25.0929L89.1292 25.457C92.0792 26.1102 93.3048 27.2197 93.3048 29.1887C93.3048 31.7072 91.1621 33.2846 87.7543 33.2846C84.5657 33.2846 82.413 31.7443 82.2739 29.3093L84.4765 29.3095Z" fill="white"/>
<path d="M97.9473 20.9229V23.2455H99.9406V24.8408H97.9473V30.2517C97.9473 31.0922 98.3464 31.4839 99.2227 31.4839C99.4592 31.48 99.6956 31.4644 99.9305 31.4372V33.0231C99.5365 33.092 99.1361 33.1232 98.7353 33.1163C96.613 33.1163 95.7854 32.3699 95.7854 30.4665V24.8408H94.2612V23.2455H95.7854V20.9229H97.9473Z" fill="white"/>
<path d="M101.095 28.1535C101.095 25.0655 103.037 23.125 106.066 23.125C109.106 23.125 111.039 25.0654 111.039 28.1535C111.039 31.2501 109.116 33.1821 106.066 33.1821C103.018 33.1821 101.095 31.2501 101.095 28.1535ZM108.847 28.1535C108.847 26.0351 107.81 24.785 106.066 24.785C104.323 24.785 103.287 26.0447 103.287 28.1535C103.287 30.2803 104.323 31.5211 106.066 31.5211C107.81 31.5211 108.847 30.2803 108.847 28.1535Z" fill="white"/>
<path d="M112.813 23.246H114.865V24.9165H114.915C115.054 24.3948 115.38 23.9337 115.839 23.6107C116.299 23.2879 116.863 23.1228 117.436 23.1433C117.684 23.1425 117.932 23.1677 118.174 23.2185V25.1029C117.86 25.0133 117.533 24.9722 117.207 24.9811C116.894 24.9693 116.583 25.0208 116.293 25.1325C116.004 25.244 115.744 25.4128 115.531 25.6272C115.318 25.8418 115.157 26.097 115.059 26.3752C114.962 26.6535 114.929 26.9481 114.965 27.2392V33.0607H112.813V23.246Z" fill="white"/>
<path d="M128.095 30.1776C127.805 31.9594 125.952 33.1821 123.581 33.1821C120.532 33.1821 118.639 31.2692 118.639 28.2002C118.639 25.1216 120.542 23.125 123.491 23.125C126.391 23.125 128.215 24.9903 128.215 27.9662V28.6564H120.811V28.7782C120.777 29.1393 120.825 29.5033 120.953 29.8457C121.08 30.188 121.285 30.501 121.551 30.764C121.818 31.0269 122.142 31.2337 122.5 31.3706C122.859 31.5076 123.244 31.5715 123.631 31.5582C124.139 31.6028 124.65 31.4925 125.086 31.2437C125.522 30.995 125.861 30.6211 126.052 30.1776H128.095ZM120.822 27.2484H126.062C126.081 26.9236 126.029 26.5986 125.907 26.2938C125.787 25.9889 125.599 25.7108 125.357 25.4769C125.116 25.243 124.826 25.0583 124.505 24.9346C124.183 24.8108 123.838 24.7505 123.491 24.7574C123.141 24.7554 122.794 24.8185 122.469 24.9429C122.145 25.0673 121.85 25.2505 121.602 25.4821C121.353 25.7137 121.156 25.9891 121.023 26.2922C120.889 26.5953 120.821 26.9203 120.822 27.2484Z" fill="white"/>
<path d="M45.2429 9.46339C45.6941 9.43309 46.1468 9.49689 46.5683 9.65022C46.9899 9.80354 47.3699 10.0425 47.6809 10.35C47.9918 10.6575 48.226 11.0257 48.3666 11.4282C48.5072 11.8307 48.5506 12.2573 48.4937 12.6774C48.4937 14.7439 47.3009 15.9318 45.2429 15.9318H42.7476V9.46339H45.2429ZM43.8206 15.017H45.1231C45.4455 15.035 45.768 14.9856 46.0674 14.8721C46.3667 14.7587 46.6353 14.5843 46.8536 14.3615C47.0717 14.1386 47.2342 13.873 47.329 13.5839C47.4237 13.2949 47.4485 12.9897 47.4015 12.6906C47.4451 12.3927 47.4178 12.0895 47.3216 11.8025C47.2254 11.5156 47.0626 11.2522 46.8448 11.0311C46.6271 10.81 46.3597 10.6368 46.0621 10.5238C45.7645 10.4108 45.4438 10.3608 45.1231 10.3775H43.8206V15.017Z" fill="white"/>
<path d="M49.7055 13.4888C49.6727 13.168 49.7119 12.8444 49.8206 12.5386C49.9292 12.2328 50.1049 11.9516 50.3364 11.7132C50.5679 11.4747 50.8501 11.2842 51.1648 11.1538C51.4796 11.0234 51.8199 10.9561 52.1642 10.9561C52.5083 10.9561 52.8487 11.0234 53.1634 11.1538C53.4783 11.2842 53.7603 11.4747 53.9919 11.7132C54.2234 11.9516 54.3991 12.2328 54.5078 12.5386C54.6164 12.8444 54.6556 13.168 54.6229 13.4888C54.6562 13.81 54.6175 14.134 54.5091 14.4403C54.4008 14.7466 54.2251 15.0283 53.9937 15.2672C53.7621 15.5062 53.4797 15.6971 53.1646 15.8277C52.8495 15.9584 52.5088 16.0259 52.1642 16.0259C51.8196 16.0259 51.4788 15.9584 51.1638 15.8277C50.8486 15.6971 50.5663 15.5062 50.3347 15.2672C50.1031 15.0283 49.9276 14.7466 49.8192 14.4403C49.7108 14.134 49.672 13.81 49.7055 13.4888ZM53.5645 13.4888C53.5645 12.4307 53.0568 11.8119 52.1658 11.8119C51.2714 11.8119 50.7683 12.4307 50.7683 13.4889C50.7683 14.5554 51.2716 15.1694 52.1658 15.1694C53.0568 15.1694 53.5645 14.5511 53.5645 13.4888Z" fill="white"/>
<path d="M61.1602 15.9312H60.0929L59.0153 12.336H58.9339L57.8609 15.9312H56.8038L55.3667 11.0498H56.4103L57.3443 14.7746H57.4212L58.493 11.0498H59.4801L60.552 14.7746H60.6334L61.5628 11.0498H62.5917L61.1602 15.9312Z" fill="white"/>
<path d="M63.7988 11.0502H64.7893V11.8257H64.8662C64.9967 11.5471 65.2167 11.3137 65.4955 11.1578C65.7744 11.0019 66.0983 10.9313 66.422 10.956C66.6757 10.9381 66.9305 10.9739 67.1673 11.0608C67.4042 11.1476 67.6172 11.2832 67.7904 11.4576C67.9638 11.632 68.093 11.8405 68.1685 12.0681C68.244 12.2955 68.2638 12.536 68.2266 12.7716V15.9316H67.1977V13.0135C67.1977 12.229 66.8336 11.8389 66.0727 11.8389C65.9004 11.8314 65.7285 11.8588 65.5687 11.9194C65.4088 11.9798 65.2648 12.072 65.1466 12.1895C65.0283 12.307 64.9387 12.447 64.8835 12.6001C64.8285 12.7531 64.8096 12.9154 64.8277 13.0759V15.9316H63.7988V11.0502Z" fill="white"/>
<path d="M69.8672 9.14453H70.8961V15.9315H69.8672V9.14453Z" fill="white"/>
<path d="M72.327 13.4889C72.2943 13.1681 72.3335 12.8444 72.4421 12.5386C72.5508 12.2328 72.7266 11.9516 72.9581 11.7132C73.1895 11.4747 73.4718 11.2842 73.7866 11.1538C74.1014 11.0234 74.4418 10.9561 74.7859 10.9561C75.1302 10.9561 75.4706 11.0234 75.7853 11.1538C76.1001 11.2842 76.3823 11.4747 76.6138 11.7132C76.8454 11.9516 77.0211 12.2328 77.1297 12.5386C77.2385 12.8444 77.2776 13.1681 77.2448 13.4889C77.2783 13.8101 77.2395 14.1342 77.1311 14.4404C77.0227 14.7467 76.8471 15.0283 76.6155 15.2673C76.3839 15.5063 76.1015 15.6971 75.7865 15.8278C75.4713 15.9584 75.1305 16.0259 74.7859 16.0259C74.4413 16.0259 74.1006 15.9584 73.7855 15.8278C73.4704 15.6971 73.188 15.5063 72.9565 15.2673C72.7249 15.0283 72.5492 14.7467 72.4408 14.4404C72.3325 14.1342 72.2937 13.8101 72.327 13.4889ZM76.1861 13.4889C76.1861 12.4308 75.6783 11.812 74.7873 11.812C73.893 11.812 73.3899 12.4308 73.3899 13.4889C73.3899 14.5555 73.8931 15.1696 74.7873 15.1696C75.6783 15.1696 76.1861 14.5512 76.1861 13.4889Z" fill="white"/>
<path d="M78.3267 14.5512C78.3267 13.6725 79.0254 13.1659 80.2658 13.094L81.6781 13.0177V12.5965C81.6781 12.0809 81.314 11.7898 80.6107 11.7898C80.0363 11.7898 79.6383 11.9872 79.524 12.3322H78.5279C78.6332 11.4938 79.4755 10.9561 80.6582 10.9561C81.9652 10.9561 82.7025 11.5653 82.7025 12.5965V15.9317H81.712V15.2456H81.6306C81.4654 15.4918 81.2333 15.6923 80.9582 15.827C80.6831 15.9617 80.3746 16.0256 80.0645 16.0122C79.8457 16.0335 79.6245 16.0116 79.4152 15.9479C79.2059 15.8843 79.0132 15.7803 78.8494 15.6427C78.6857 15.505 78.5547 15.3368 78.4646 15.1488C78.3745 14.9608 78.3276 14.7572 78.3267 14.5512ZM81.6781 14.134V13.726L80.4048 13.8022C79.687 13.8472 79.3612 14.0759 79.3612 14.5062C79.3612 14.9455 79.7684 15.2012 80.3281 15.2012C80.492 15.2168 80.6577 15.2013 80.8152 15.1557C80.9727 15.11 81.1187 15.0351 81.2447 14.9357C81.3707 14.8361 81.4739 14.7138 81.5484 14.5761C81.6228 14.4383 81.667 14.288 81.6781 14.134Z" fill="white"/>
<path d="M84.0547 13.4887C84.0547 11.9462 84.9016 10.9691 86.2188 10.9691C86.5446 10.9551 86.868 11.0281 87.1511 11.1798C87.4342 11.3314 87.6655 11.5554 87.8176 11.8256H87.8945V9.14453H88.9234V15.9315H87.9375V15.1603H87.8561C87.6921 15.4286 87.4529 15.6497 87.1643 15.7999C86.8757 15.95 86.5488 16.0233 86.2188 16.0119C84.8925 16.0121 84.0547 15.0349 84.0547 13.4887ZM85.1175 13.4887C85.1175 14.524 85.6388 15.1471 86.5106 15.1471C87.3778 15.1471 87.9137 14.515 87.9137 13.4929C87.9137 12.4756 87.3722 11.8346 86.5106 11.8346C85.6445 11.8346 85.1175 12.4618 85.1175 13.4887Z" fill="white"/>
<path d="M93.1806 13.4888C93.1478 13.168 93.187 12.8444 93.2957 12.5386C93.4043 12.2328 93.58 11.9516 93.8115 11.7132C94.043 11.4747 94.3251 11.2842 94.6398 11.1538C94.9547 11.0234 95.2951 10.9561 95.6392 10.9561C95.9835 10.9561 96.3238 11.0234 96.6386 11.1538C96.9533 11.2842 97.2355 11.4747 97.467 11.7132C97.6984 11.9516 97.8742 12.2328 97.9828 12.5386C98.0915 12.8444 98.1307 13.168 98.0979 13.4888C98.1313 13.81 98.0926 14.134 97.9842 14.4403C97.8758 14.7466 97.7003 15.0283 97.4687 15.2672C97.2371 15.5062 96.9547 15.6971 96.6397 15.8277C96.3246 15.9584 95.9838 16.0259 95.6392 16.0259C95.2946 16.0259 94.9539 15.9584 94.6388 15.8277C94.3237 15.6971 94.0413 15.5062 93.8098 15.2672C93.5782 15.0283 93.4026 14.7466 93.2943 14.4403C93.1859 14.134 93.1472 13.81 93.1806 13.4888ZM97.0396 13.4888C97.0396 12.4307 96.5319 11.8119 95.641 11.8119C94.7466 11.8119 94.2435 12.4307 94.2435 13.4889C94.2435 14.5554 94.7466 15.1694 95.641 15.1694C96.5319 15.1694 97.0396 14.5511 97.0396 13.4888Z" fill="white"/>
<path d="M99.478 11.0502H100.468V11.8257H100.545C100.676 11.5471 100.896 11.3137 101.175 11.1578C101.454 11.0019 101.777 10.9313 102.101 10.956C102.355 10.9381 102.61 10.9739 102.846 11.0608C103.083 11.1476 103.296 11.2832 103.47 11.4576C103.643 11.632 103.772 11.8405 103.848 12.0681C103.923 12.2955 103.943 12.536 103.906 12.7716V15.9316H102.877V13.0135C102.877 12.229 102.513 11.8389 101.752 11.8389C101.58 11.8314 101.408 11.8588 101.248 11.9194C101.088 11.9798 100.944 12.072 100.826 12.1895C100.707 12.307 100.618 12.447 100.563 12.6001C100.508 12.7531 100.489 12.9154 100.507 13.0759V15.9316H99.478V11.0502Z" fill="white"/>
<path d="M109.72 9.83496V11.0725H110.849V11.884H109.72V14.394C109.72 14.9053 109.945 15.1293 110.457 15.1293C110.588 15.1289 110.719 15.1214 110.849 15.107V15.9095C110.664 15.9404 110.477 15.9569 110.289 15.9587C109.145 15.9587 108.689 15.5818 108.689 14.6406V11.8839H107.862V11.0725H108.689V9.83496H109.72Z" fill="white"/>
<path d="M112.256 9.14453H113.276V11.8346H113.357C113.494 11.5534 113.72 11.3186 114.005 11.1622C114.289 11.0057 114.618 10.9351 114.947 10.9601C115.199 10.9473 115.452 10.9867 115.686 11.0756C115.92 11.1646 116.13 11.3008 116.302 11.4746C116.474 11.6484 116.602 11.8556 116.677 12.0812C116.754 12.3068 116.776 12.5454 116.742 12.7799V15.9315H115.712V13.0176C115.712 12.2379 115.325 11.8431 114.598 11.8431C114.421 11.8294 114.243 11.8522 114.076 11.9097C113.91 11.9672 113.759 12.0581 113.634 12.1759C113.509 12.2938 113.413 12.4359 113.352 12.5921C113.292 12.7484 113.269 12.915 113.285 13.0806V15.9315H112.256L112.256 9.14453Z" fill="white"/>
<path d="M122.743 14.6138C122.603 15.0599 122.299 15.4458 121.887 15.7039C121.474 15.9621 120.977 16.0761 120.484 16.0259C120.14 16.0345 119.798 15.9729 119.483 15.8454C119.167 15.718 118.886 15.5279 118.657 15.2881C118.427 15.0484 118.256 14.7649 118.156 14.4572C118.056 14.1496 118.028 13.8251 118.075 13.5065C118.029 13.1868 118.058 12.8616 118.157 12.5531C118.257 12.2444 118.427 11.9595 118.655 11.7178C118.883 11.4759 119.164 11.2828 119.479 11.1514C119.794 11.02 120.134 10.9534 120.479 10.9561C121.93 10.9561 122.804 11.8841 122.804 13.417V13.7531H119.123V13.8071C119.107 13.9862 119.131 14.1665 119.194 14.3364C119.256 14.5064 119.356 14.6622 119.487 14.7938C119.618 14.9255 119.776 15.0301 119.953 15.101C120.129 15.1719 120.319 15.2075 120.511 15.2056C120.758 15.2331 121.007 15.1917 121.228 15.0863C121.448 14.9809 121.631 14.8164 121.752 14.6138H122.743ZM119.123 13.0406H121.756C121.769 12.8768 121.746 12.7123 121.687 12.5575C121.628 12.4028 121.535 12.2614 121.413 12.1422C121.293 12.0232 121.147 11.9291 120.985 11.866C120.823 11.803 120.648 11.7723 120.473 11.7761C120.295 11.7739 120.119 11.8053 119.953 11.868C119.789 11.9309 119.64 12.0239 119.513 12.1418C119.387 12.2596 119.288 12.3999 119.222 12.5542C119.154 12.7087 119.121 12.874 119.123 13.0406Z" fill="white"/>
</svg>
