<svg width="20" height="20" viewBox="0 0 20 20" fill="none" xmlns="http://www.w3.org/2000/svg">
<g clip-path="url(#clip0_1987_222)">
<path d="M17.4998 17.5H2.49984C2.27882 17.5 2.06686 17.4122 1.91058 17.2559C1.7543 17.0996 1.6665 16.8877 1.6665 16.6667V10.4058C1.66649 10.2868 1.692 10.1691 1.7413 10.0607C1.79061 9.95229 1.86257 9.85573 1.95234 9.7775L4.99984 7.12V3.33333C4.99984 3.11232 5.08764 2.90036 5.24392 2.74408C5.4002 2.5878 5.61216 2.5 5.83317 2.5H17.4998C17.7209 2.5 17.9328 2.5878 18.0891 2.74408C18.2454 2.90036 18.3332 3.11232 18.3332 3.33333V16.6667C18.3332 16.8877 18.2454 17.0996 18.0891 17.2559C17.9328 17.4122 17.7209 17.5 17.4998 17.5ZM7.49984 15.8333H9.99984V10.785L6.6665 7.87833L3.33317 10.785V15.8333H5.83317V12.5H7.49984V15.8333ZM11.6665 15.8333H16.6665V4.16667H6.6665V5.93917C6.8615 5.93917 7.05734 6.0075 7.214 6.145L11.3807 9.7775C11.4704 9.85573 11.5424 9.95229 11.5917 10.0607C11.641 10.1691 11.6665 10.2868 11.6665 10.4058V15.8333ZM13.3332 9.16667H14.9998V10.8333H13.3332V9.16667ZM13.3332 12.5H14.9998V14.1667H13.3332V12.5ZM13.3332 5.83333H14.9998V7.5H13.3332V5.83333ZM9.99984 5.83333H11.6665V7.5H9.99984V5.83333Z" fill="#ACACAC"/>
</g>
<defs>
<clipPath id="clip0_1987_222">
<rect width="20" height="20" fill="white"/>
</clipPath>
</defs>
</svg>
