<svg width="165" height="44" viewBox="0 0 165 44" fill="none" xmlns="http://www.w3.org/2000/svg">
<g clip-path="url(#clip0_1988_151)">
<path d="M158.203 0H6.6411C3.29289 0 0.578613 2.43578 0.578613 5.44046V38.0833C0.578613 41.0879 3.29289 43.5238 6.6411 43.5238H158.203C161.552 43.5238 164.266 41.0879 164.266 38.0833V5.44046C164.266 2.43578 161.552 0 158.203 0Z" fill="#24272C"/>
<path d="M158.203 0.870475C159.554 0.870475 160.849 1.35196 161.804 2.209C162.759 3.06604 163.296 4.22842 163.296 5.44046V38.0833C163.296 39.2952 162.759 40.4577 161.804 41.3147C160.849 42.1718 159.554 42.6533 158.203 42.6533H6.6411C5.29049 42.6533 3.99519 42.1718 3.04016 41.3147C2.08514 40.4577 1.54861 39.2952 1.54861 38.0833V5.44046C1.54861 4.22842 2.08514 3.06604 3.04016 2.209C3.99519 1.35196 5.29049 0.870475 6.6411 0.870475H158.203ZM158.203 0H6.6411C5.03322 0 3.49121 0.57319 2.35427 1.59347C1.21734 2.61376 0.578613 3.99756 0.578613 5.44046V38.0833C0.578613 39.5261 1.21734 40.9099 2.35427 41.9303C3.49121 42.9505 5.03322 43.5238 6.6411 43.5238H158.203C159.811 43.5238 161.353 42.9505 162.49 41.9303C163.627 40.9099 164.266 39.5261 164.266 38.0833V5.44046C164.266 3.99756 163.627 2.61376 162.49 1.59347C161.353 0.57319 159.811 0 158.203 0Z" fill="#E3E8EA"/>
<path d="M49.2455 11.1424C49.2624 11.5415 49.2029 11.94 49.0706 12.314C48.9383 12.688 48.736 13.0298 48.4759 13.3187C48.1843 13.6378 47.8324 13.888 47.4434 14.053C47.0543 14.218 46.6367 14.2941 46.218 14.2761C45.7968 14.2861 45.3783 14.2043 44.9882 14.0359C44.598 13.8674 44.2447 13.6159 43.9499 13.2969C43.3518 12.6484 43.0171 11.7774 43.0171 10.8704C43.0171 9.96345 43.3518 9.09252 43.9499 8.44397C44.4071 7.97031 44.9861 7.65046 45.6142 7.52463C46.2424 7.39879 46.8916 7.47257 47.4803 7.73671C47.8504 7.898 48.1805 8.14745 48.4451 8.46574L47.9011 9.04243C47.6973 8.78212 47.4391 8.57578 47.1468 8.43979C46.8547 8.30379 46.5366 8.24189 46.218 8.25899C45.8157 8.26195 45.4202 8.36932 45.0661 8.57173C44.712 8.77414 44.41 9.06543 44.1867 9.42013C43.9632 9.77483 43.8252 10.1822 43.7845 10.6065C43.7439 11.0308 43.8019 11.4593 43.9535 11.8544C44.105 12.2495 44.3455 12.5991 44.6541 12.8729C44.9626 13.1466 45.3296 13.3361 45.7231 13.4247C46.1167 13.5134 46.5246 13.4985 46.9114 13.3814C47.2983 13.2642 47.6521 13.0484 47.9422 12.7528C48.2556 12.3884 48.4374 11.9182 48.4553 11.4253H46.218V10.6419H49.2045C49.2279 10.8077 49.2416 10.9749 49.2455 11.1424Z" fill="white"/>
<path fill-rule="evenodd" clip-rule="evenodd" d="M47.4394 7.83635C46.8694 7.58058 46.2408 7.50913 45.6325 7.63098C45.0246 7.75276 44.4642 8.06216 44.0216 8.52036C43.4428 9.14847 43.1189 9.99173 43.1189 10.8699C43.1189 11.7484 43.4432 12.5919 44.0224 13.2202C44.3073 13.5286 44.6489 13.7717 45.026 13.9345C45.4032 14.0974 45.8077 14.1764 46.2148 14.1668L46.2181 14.1667L46.2213 14.1669C46.6256 14.1842 47.0287 14.1107 47.4044 13.9514C47.78 13.7922 48.1196 13.5507 48.4011 13.2427C48.6515 12.9644 48.8463 12.6354 48.9737 12.2753C49.1011 11.915 49.1585 11.5311 49.1421 11.1467V11.1446C49.139 11.0127 49.1296 10.8811 49.1142 10.7502H46.3198V11.316H48.5611L48.557 11.429C48.5382 11.9475 48.347 12.4422 48.0171 12.8256L48.0149 12.8283L48.0125 12.8307C47.7104 13.1386 47.3417 13.3634 46.9388 13.4855C46.5358 13.6074 46.1109 13.6229 45.701 13.5306C45.2911 13.4382 44.9087 13.2409 44.5874 12.9557C44.266 12.6706 44.0154 12.3063 43.8576 11.8948C43.6997 11.4832 43.6392 11.0369 43.6816 10.5949C43.724 10.1529 43.8678 9.72863 44.1004 9.35914C44.3332 8.98966 44.6478 8.68623 45.0165 8.47539C45.3848 8.26492 45.7959 8.15309 46.2142 8.14964C46.5481 8.13209 46.8812 8.19711 47.1873 8.33959C47.4597 8.46639 47.704 8.65145 47.9053 8.88271L48.3022 8.46185C48.0598 8.19189 47.7653 7.97834 47.4394 7.83635ZM47.519 7.63572C46.9118 7.36341 46.2422 7.28737 45.5943 7.41714C44.9464 7.54697 44.349 7.87693 43.8773 8.36559L43.8757 8.36735C43.2589 9.03622 42.9136 9.93445 42.9136 10.8699C42.9136 11.8053 43.2589 12.7034 43.8757 13.3724C44.1802 13.702 44.5455 13.9621 44.9486 14.1361C45.3507 14.3097 45.7821 14.3942 46.2162 14.3845C46.6483 14.4024 47.0791 14.3238 47.4807 14.1535C47.8831 13.9828 48.2471 13.7239 48.5487 13.3938C48.8185 13.0942 49.0286 12.7393 49.1659 12.3517C49.3028 11.9642 49.3646 11.5514 49.3473 11.1381C49.3431 10.9664 49.3291 10.7951 49.3052 10.6253L49.2921 10.5326H46.1145V11.5336H48.3448C48.3064 11.9581 48.1395 12.3592 47.8677 12.6763C47.5903 12.9583 47.2521 13.1643 46.8825 13.2761C46.5117 13.3885 46.1207 13.4027 45.7436 13.3178C45.3665 13.2328 45.0148 13.0513 44.7191 12.7889C44.4235 12.5265 44.1929 12.1914 44.0477 11.8128C43.9024 11.4342 43.8468 11.0236 43.8857 10.6169C43.9248 10.2103 44.0571 9.81991 44.2712 9.47999C44.4853 9.14007 44.7747 8.86092 45.114 8.66694C45.4533 8.47296 45.8323 8.37007 46.2179 8.36724L46.2201 8.36722L46.2224 8.3671C46.525 8.35085 46.8273 8.40966 47.1048 8.53885C47.3824 8.66804 47.6277 8.86407 47.8213 9.11135L47.8932 9.20321L48.5849 8.46988L48.5211 8.39324C48.2464 8.06255 47.9034 7.80337 47.519 7.63572Z" fill="white"/>
<path d="M53.946 8.4214H51.1751V10.4888H53.6998V11.2722H51.1751V13.3396H53.946V14.1448H50.3745V7.61621H53.946V8.4214Z" fill="white"/>
<path fill-rule="evenodd" clip-rule="evenodd" d="M50.272 7.50781H54.0487V8.53062H51.2777V10.3804H53.8024V11.3814H51.2777V13.2312H54.0487V14.2539H50.272V7.50781ZM50.4773 7.72543V14.0364H53.8435V13.4488H51.0724V11.1638H53.5971V10.598H51.0724V8.313H53.8435V7.72543H50.4773Z" fill="white"/>
<path d="M57.3118 14.1448H56.5216V8.4214H54.7974V7.61621H59.0771V8.4214H57.3118V14.1448Z" fill="white"/>
<path fill-rule="evenodd" clip-rule="evenodd" d="M54.6948 7.50781H59.1797V8.53062H57.4145V14.2539H56.419V8.53062H54.6948V7.50781ZM54.9001 7.72543V8.313H56.6243V14.0364H57.2093V8.313H58.9745V7.72543H54.9001Z" fill="white"/>
<path d="M62.0957 14.1448V7.61621H62.886V14.1448H62.0957Z" fill="white"/>
<path fill-rule="evenodd" clip-rule="evenodd" d="M61.9917 7.50781H62.9873V14.2539H61.9917V7.50781ZM62.197 7.72543V14.0364H62.782V7.72543H62.197Z" fill="white"/>
<path d="M66.3943 14.1448H65.604V8.4214H63.8799V7.61621H68.1082V8.4214H66.3943V14.1448Z" fill="white"/>
<path fill-rule="evenodd" clip-rule="evenodd" d="M63.7773 7.50781H68.2109V8.53062H66.497V14.2539H65.5015V8.53062H63.7773V7.50781ZM63.9825 7.72543V8.313H65.7067V14.0364H66.2917V8.313H68.0056V7.72543H63.9825Z" fill="white"/>
<path d="M76.1245 13.2961C75.8281 13.6105 75.4761 13.8601 75.0887 14.0303C74.7013 14.2005 74.286 14.2881 73.8667 14.2881C73.4473 14.2881 73.032 14.2005 72.6447 14.0303C72.2573 13.8601 71.9053 13.6105 71.6088 13.2961C71.0286 12.6421 70.7056 11.7782 70.7056 10.8805C70.7056 9.9827 71.0286 9.11877 71.6088 8.46489C71.8989 8.1415 72.2497 7.88628 72.6387 7.71571C73.0276 7.54515 73.446 7.46304 73.8667 7.47473C74.2868 7.46767 74.7039 7.55189 75.0923 7.72218C75.4805 7.89247 75.8318 8.14523 76.1245 8.46489C76.4197 8.78315 76.6516 9.16086 76.8067 9.57575C76.9618 9.99063 77.0369 10.4343 77.0277 10.8805C77.0411 11.3272 76.9679 11.7722 76.8125 12.1876C76.6571 12.6032 76.423 12.9804 76.1245 13.2961ZM72.1938 12.752C72.4124 12.9869 72.6729 13.1733 72.9601 13.3007C73.2473 13.4279 73.5554 13.4935 73.8667 13.4935C74.178 13.4935 74.4861 13.4279 74.7732 13.3007C75.0604 13.1733 75.3209 12.9869 75.5395 12.752C75.9823 12.2418 76.2281 11.5738 76.2281 10.8805C76.2281 10.1871 75.9823 9.51912 75.5395 9.00894C75.3209 8.77403 75.0604 8.58752 74.7732 8.46022C74.4861 8.33292 74.178 8.26737 73.8667 8.26737C73.5554 8.26737 73.2473 8.33292 72.9601 8.46022C72.6729 8.58752 72.4124 8.77403 72.1938 9.00894C71.751 9.51912 71.5052 10.1871 71.5052 10.8805C71.5052 11.5738 71.751 12.2418 72.1938 12.752Z" fill="white"/>
<path fill-rule="evenodd" clip-rule="evenodd" d="M73.864 7.58488C73.4577 7.57361 73.0536 7.65291 72.6779 7.81764C72.3024 7.98235 71.9636 8.2288 71.6835 8.54104C71.1213 9.17472 70.8083 10.0119 70.8083 10.8818C70.8083 11.7514 71.121 12.5881 71.6825 13.2217C71.9692 13.5255 72.3095 13.7666 72.684 13.9312C73.0589 14.0959 73.4608 14.1807 73.8667 14.1807C74.2726 14.1807 74.6745 14.0959 75.0495 13.9312C75.4244 13.7664 75.765 13.5249 76.052 13.2205C76.3405 12.9154 76.567 12.5505 76.7172 12.1489C76.8674 11.7473 76.9381 11.3172 76.9251 10.8853L76.925 10.8824L76.9251 10.8794C76.9341 10.4478 76.8613 10.0186 76.7113 9.61724C76.5612 9.21587 76.3368 8.85045 76.0514 8.54255C75.7684 8.23355 75.4283 7.98872 75.053 7.82412C74.6777 7.65951 74.2745 7.5781 73.8683 7.58491L73.8662 7.58494L73.864 7.58488ZM76.1971 13.3745C75.8911 13.6991 75.5279 13.9566 75.1281 14.1322C74.7281 14.3079 74.2996 14.3983 73.8667 14.3983C73.4338 14.3983 73.0053 14.3079 72.6054 14.1322C72.2056 13.9565 71.8422 13.6989 71.5363 13.3743L71.5352 13.3731L71.5341 13.3719C70.936 12.6979 70.603 11.8073 70.603 10.8818C70.603 9.95639 70.936 9.0658 71.5341 8.39173C71.834 8.0573 72.1972 7.79295 72.5995 7.61655C73.001 7.44046 73.4329 7.35555 73.8672 7.36728C74.3006 7.36032 74.7309 7.44735 75.1314 7.62302C75.5326 7.79894 75.8955 8.06004 76.198 8.39025C76.5026 8.71881 76.742 9.10875 76.9021 9.53705C77.062 9.96453 77.1396 10.4216 77.1303 10.8813C77.1303 10.8803 77.1303 10.8793 77.1303 10.8784L77.0277 10.8818L77.1303 10.8842C77.1303 10.8833 77.1303 10.8823 77.1303 10.8813C77.1439 11.342 77.0681 11.8007 76.908 12.2291C76.7475 12.6585 76.5055 13.0483 76.1971 13.3745ZM72.9206 8.36123C73.2202 8.22837 73.5419 8.15995 73.8667 8.15995C74.1916 8.15995 74.5132 8.22837 74.8129 8.36123C75.1126 8.49409 75.3844 8.68875 75.6127 8.9339L75.6139 8.93524L75.6151 8.93664C76.0754 9.4669 76.3308 10.1612 76.3308 10.8818C76.3308 11.6025 76.0754 12.2967 75.6151 12.827L75.6139 12.8284L75.6127 12.8298C75.3844 13.0749 75.1126 13.2696 74.8129 13.4025C74.5132 13.5353 74.1916 13.6038 73.8667 13.6038C73.5419 13.6038 73.2202 13.5353 72.9206 13.4025C72.6208 13.2696 72.349 13.0749 72.1208 12.8298L72.1939 12.7534L72.1184 12.827C71.6581 12.2967 71.4027 11.6025 71.4027 10.8818C71.4027 10.1612 71.6581 9.4669 72.1184 8.93664L72.1195 8.93524L72.1208 8.9339C72.349 8.68875 72.6208 8.49409 72.9206 8.36123ZM72.2682 12.6783C72.477 12.9023 72.7257 13.0802 72.9998 13.2017C73.2743 13.3234 73.5691 13.3861 73.8667 13.3861C74.1644 13.3861 74.4591 13.3234 74.7337 13.2017C75.0078 13.0802 75.2565 12.9023 75.4653 12.6783C75.8899 12.1883 76.1256 11.5472 76.1256 10.8818C76.1256 10.2164 75.8899 9.57532 75.4653 9.0854C75.2565 8.8614 75.0078 8.68351 74.7337 8.56201C74.4591 8.44027 74.1644 8.37758 73.8667 8.37758C73.5691 8.37758 73.2743 8.44027 72.9998 8.56201C72.7257 8.68351 72.477 8.8614 72.2682 9.0854C71.8436 9.57532 71.6079 10.2164 71.6079 10.8818C71.6079 11.5472 71.8436 12.1883 72.2682 12.6783Z" fill="white"/>
<path d="M78.1455 14.1448V7.61621H79.1L82.0967 12.6976V11.4354V7.61621H82.887V14.1448H82.0659L78.9357 8.824V10.0753V14.1448H78.1455Z" fill="white"/>
<path fill-rule="evenodd" clip-rule="evenodd" d="M78.0425 7.50781H79.1565L81.9938 12.3188V7.50781H82.9892V14.2539H82.0086L79.038 9.20445V14.2539H78.0425V7.50781ZM78.2478 7.72543V14.0364H78.8327V8.44435L82.1226 14.0364H82.7839V7.72543H82.199V13.0773L79.0428 7.72543H78.2478Z" fill="white"/>
<path d="M70.5103 23.6654C69.6455 23.6676 68.8009 23.9416 68.083 24.4527C67.3652 24.9638 66.8064 25.6891 66.4774 26.5369C66.1483 27.3847 66.0638 28.3169 66.2345 29.2157C66.4052 30.1144 66.8234 30.9393 67.4363 31.586C68.0491 32.2328 68.8291 32.6722 69.6776 32.849C70.5261 33.0257 71.405 32.9318 72.2031 32.579C73.0011 32.2262 73.6827 31.6303 74.1613 30.8668C74.6401 30.1034 74.8945 29.2066 74.8925 28.2898C74.9009 27.6782 74.7931 27.0711 74.5755 26.5047C74.3581 25.9381 74.0352 25.4238 73.6263 24.9924C73.2174 24.5609 72.7309 24.2211 72.1955 23.9931C71.6602 23.7651 71.087 23.6537 70.5103 23.6654ZM70.5103 31.0971C69.9803 31.1364 69.4514 31.0058 68.9923 30.7221C68.5333 30.4385 68.1653 30.0151 67.9363 29.5068C67.7073 28.9986 67.6278 28.429 67.7081 27.8722C67.7885 27.3153 68.0249 26.7971 68.3868 26.3846C68.7486 25.9722 69.2192 25.6847 69.7372 25.5595C70.2552 25.4344 70.7967 25.4774 71.2914 25.6828C71.7861 25.8883 72.2111 26.2468 72.511 26.7117C72.811 27.1767 72.9721 27.7265 72.9733 28.2898C72.9899 28.6467 72.9388 29.0035 72.8231 29.3392C72.7076 29.6749 72.5297 29.9825 72.3002 30.2442C72.0706 30.5059 71.794 30.7162 71.4866 30.8626C71.1792 31.0091 70.8472 31.0888 70.5103 31.0971ZM60.9452 23.6654C60.0805 23.6676 59.2358 23.9416 58.5179 24.4527C57.8002 24.9638 57.2414 25.6891 56.9124 26.5369C56.5833 27.3847 56.4988 28.3169 56.6695 29.2157C56.8401 30.1144 57.2584 30.9393 57.8713 31.586C58.4841 32.2328 59.2641 32.6722 60.1126 32.849C60.9611 33.0257 61.8399 32.9318 62.6381 32.579C63.4361 32.2262 64.1176 31.6303 64.5963 30.8668C65.0751 30.1034 65.3295 29.2066 65.3274 28.2898C65.3359 27.6782 65.2281 27.0711 65.0105 26.5047C64.793 25.9381 64.4702 25.4238 64.0612 24.9924C63.6524 24.5609 63.1658 24.2211 62.6304 23.9931C62.0951 23.7651 61.522 23.6537 60.9452 23.6654ZM60.9452 31.0971C60.4153 31.1364 59.8863 31.0058 59.4272 30.7221C58.9682 30.4385 58.6003 30.0151 58.3712 29.5068C58.1423 28.9986 58.0628 28.429 58.1431 27.8722C58.2235 27.3153 58.4599 26.7971 58.8218 26.3846C59.1836 25.9722 59.6542 25.6847 60.1722 25.5595C60.6901 25.4344 61.2317 25.4774 61.7263 25.6828C62.2211 25.8883 62.6461 26.2468 62.946 26.7117C63.246 27.1767 63.407 27.7265 63.4083 28.2898C63.4249 28.6467 63.3738 29.0035 63.2581 29.3392C63.1426 29.6749 62.9647 29.9825 62.7352 30.2442C62.5056 30.5059 62.229 30.7162 61.9216 30.8626C61.6141 31.0091 61.2822 31.0888 60.9452 31.0971ZM49.5739 25.0908V27.0494H54.0075C53.938 27.9719 53.5763 28.8424 52.9812 29.5194C52.5365 29.9998 52.0015 30.3759 51.4111 30.6232C50.8206 30.8706 50.1877 30.9839 49.5534 30.9556C48.2468 30.9556 46.9939 30.4054 46.07 29.4259C45.1462 28.4465 44.6271 27.118 44.6271 25.7328C44.6271 24.3476 45.1462 23.0192 46.07 22.0397C46.9939 21.0603 48.2468 20.5099 49.5534 20.5099C50.8059 20.4902 52.0153 20.9945 52.9196 21.9136L54.223 20.5317C53.6114 19.8903 52.885 19.3848 52.0868 19.0447C51.2884 18.7046 50.4341 18.537 49.5739 18.5513C48.6616 18.5137 47.7514 18.6718 46.898 19.016C46.0446 19.3602 45.2655 19.8835 44.6075 20.5546C43.9494 21.2256 43.4258 22.0307 43.0683 22.9213C42.7107 23.8121 42.5264 24.7702 42.5264 25.7383C42.5264 26.7063 42.7107 27.6644 43.0683 28.5551C43.4258 29.4459 43.9494 30.2508 44.6075 30.9219C45.2655 31.5929 46.0446 32.1163 46.898 32.4605C47.7514 32.8047 48.6616 32.9627 49.5739 32.9251C50.4518 32.9623 51.3272 32.8021 52.1426 32.4552C52.9581 32.1083 53.695 31.5824 54.3051 30.9121C55.3828 29.6569 55.9571 28.006 55.9061 26.3095C55.9098 25.9012 55.8789 25.4933 55.8138 25.0908H49.5739ZM96.0751 26.6141C95.8075 25.7793 95.3069 25.0504 94.6399 24.5238C93.9728 23.9971 93.1705 23.6978 92.3395 23.6654C91.778 23.6643 91.2223 23.7851 90.7068 24.0208C90.1912 24.2563 89.7268 24.6014 89.342 25.0349C88.9572 25.4682 88.6605 25.9807 88.4699 26.5406C88.2793 27.1004 88.1992 27.6958 88.2343 28.2898C88.2255 29.283 88.52 30.2527 89.0739 31.0538C89.6278 31.855 90.4112 32.4447 91.3072 32.7349C92.2033 33.025 93.1638 33 94.0453 32.6636C94.9269 32.3273 95.6821 31.6976 96.1983 30.8686L94.7101 29.7805C94.4883 30.1725 94.1737 30.4963 93.7974 30.7195C93.4212 30.9429 92.9963 31.058 92.5651 31.0536C92.1204 31.073 91.6804 30.9494 91.303 30.6989C90.9258 30.4484 90.6288 30.0827 90.451 29.65L96.2907 27.0929L96.0751 26.6141ZM90.1227 28.1592C90.1018 27.8212 90.1448 27.4823 90.2491 27.1621C90.3534 26.842 90.5169 26.5472 90.7301 26.2949C90.9432 26.0426 91.2017 25.8379 91.4904 25.6928C91.779 25.5477 92.0921 25.4651 92.4113 25.4498C92.7419 25.4285 93.0713 25.5111 93.3578 25.6872C93.6444 25.8633 93.8756 26.1252 94.0226 26.4401L90.1227 28.1592ZM85.3812 32.6422H87.3003V19.041H85.3812V32.6422ZM82.2408 24.6991H82.1689C81.8822 24.353 81.5283 24.0765 81.1316 23.8888C80.7348 23.701 80.3044 23.6062 79.87 23.611C78.7484 23.6686 77.6908 24.1816 76.9163 25.0435C76.1418 25.9055 75.7098 27.0504 75.7098 28.2408C75.7098 29.4314 76.1418 30.5762 76.9163 31.4381C77.6908 32.3001 78.7484 32.813 79.87 32.8707C80.3051 32.8799 80.7368 32.7872 81.1342 32.5991C81.5316 32.411 81.8848 32.1322 82.1689 31.7826H82.2408V32.4463C82.2408 34.22 81.3478 35.1665 79.9111 35.1665C79.431 35.1554 78.9651 34.9932 78.5722 34.7007C78.1793 34.4081 77.8774 33.9985 77.7045 33.5235L76.042 34.2526C76.3493 35.0711 76.8838 35.7714 77.5746 36.261C78.2655 36.7507 79.0802 37.0064 79.9111 36.9945C82.1586 36.9945 84.0162 35.5909 84.0162 32.1743V23.9374H82.2408V24.6991ZM80.0342 31.0971C79.3618 31.0527 78.7306 30.7381 78.2693 30.2176C77.808 29.697 77.5512 29.0096 77.5512 28.2953C77.5512 27.5809 77.808 26.8935 78.2693 26.3729C78.7306 25.8524 79.3618 25.5378 80.0342 25.4934C80.3629 25.5084 80.6853 25.5934 80.9824 25.7433C81.2794 25.8932 81.545 26.1049 81.7633 26.3657C81.9816 26.6266 82.1481 26.9314 82.2532 27.2619C82.3581 27.5925 82.3992 27.9421 82.3742 28.2898C82.4022 28.6388 82.363 28.9901 82.2594 29.3225C82.1557 29.6551 81.9894 29.9618 81.7707 30.2242C81.5519 30.4867 81.2853 30.6993 80.9868 30.8493C80.6884 30.9994 80.3643 31.0837 80.0342 31.0971ZM105.065 19.041H100.468V32.6422H102.387V27.4846H105.065C105.612 27.5263 106.162 27.448 106.679 27.2548C107.196 27.0615 107.67 26.7572 108.071 26.3612C108.473 25.9651 108.793 25.4855 109.012 24.9524C109.231 24.4194 109.344 23.8442 109.344 23.2628C109.344 22.6814 109.231 22.1063 109.012 21.5732C108.793 21.0401 108.473 20.5606 108.071 20.1645C107.67 19.7684 107.196 19.4642 106.679 19.271C106.162 19.0776 105.612 18.9993 105.065 19.041ZM105.065 25.5696H102.387V20.9343H105.106C105.395 20.9343 105.681 20.9945 105.947 21.1116C106.213 21.2286 106.455 21.4001 106.659 21.6163C106.863 21.8326 107.025 22.0893 107.136 22.3717C107.246 22.6542 107.303 22.957 107.303 23.2628C107.303 23.5686 107.246 23.8714 107.136 24.1539C107.025 24.4365 106.863 24.6932 106.659 24.9093C106.455 25.1255 106.213 25.2971 105.947 25.4141C105.681 25.5311 105.395 25.5913 105.106 25.5913L105.065 25.5696ZM116.909 23.6219C116.21 23.5763 115.514 23.7487 114.906 24.1181C114.299 24.4875 113.807 25.0375 113.491 25.7002L115.185 26.451C115.356 26.1239 115.612 25.8563 115.924 25.6806C116.235 25.5048 116.588 25.4285 116.939 25.4607C117.184 25.4306 117.43 25.4522 117.665 25.5243C117.901 25.5963 118.121 25.7174 118.313 25.8805C118.504 26.0435 118.662 26.2453 118.778 26.474C118.895 26.7028 118.968 26.9538 118.992 27.2126V27.3432C118.375 26.9992 117.688 26.82 116.991 26.8209C115.164 26.8209 113.296 27.909 113.296 29.8893C113.314 30.3102 113.412 30.723 113.583 31.1031C113.755 31.4833 113.997 31.823 114.294 32.1021C114.592 32.3812 114.94 32.5941 115.317 32.7279C115.693 32.8619 116.092 32.9141 116.488 32.8816C116.969 32.9098 117.45 32.8018 117.878 32.5685C118.308 32.3353 118.671 31.9851 118.931 31.5541H118.992V32.6422H120.839V27.4084C120.839 25.0256 119.136 23.6436 116.95 23.6436L116.909 23.6219ZM116.673 31.0754C116.047 31.0754 115.174 30.7381 115.174 29.922C115.174 28.8339 116.262 28.464 117.226 28.464C117.837 28.448 118.439 28.6058 118.971 28.9209C118.908 29.5119 118.643 30.0579 118.228 30.4581C117.812 30.8583 117.275 31.0852 116.713 31.0971L116.673 31.0754ZM127.572 23.9374L125.376 29.8349H125.314L123.036 23.9374H120.983L124.401 32.1852L122.451 36.7661H124.452L129.706 23.9374H127.572ZM110.33 32.6422H112.239V19.041H110.33V32.6422Z" fill="white"/>
<path d="M11.2939 8.2041C10.9557 8.62804 10.7832 9.173 10.8115 9.72742V33.796C10.7766 34.3514 10.95 34.8988 11.2939 35.3194L11.3657 35.4064L24.0814 21.925V21.5986L11.3657 8.12793L11.2939 8.2041Z" fill="url(#paint0_linear_1988_151)"/>
<path d="M28.2888 26.4196L24.0811 21.9257V21.5993L28.2888 17.1055L28.3812 17.1708L33.4203 20.1957C34.8571 21.0553 34.8571 22.4698 33.4203 23.3403L28.4017 26.3652L28.2888 26.4196Z" fill="url(#paint1_linear_1988_151)"/>
<path d="M28.4114 26.3535L24.0806 21.7617L11.293 35.3194C11.583 35.593 11.9542 35.7505 12.3422 35.7644C12.7302 35.7783 13.1106 35.6478 13.4174 35.3955L28.4114 26.3535Z" fill="url(#paint2_linear_1988_151)"/>
<path d="M28.4114 17.1701L13.4174 8.13901C13.1126 7.88322 12.7325 7.74954 12.3439 7.76148C11.9554 7.77342 11.5833 7.93022 11.293 8.20429L24.0806 21.7619L28.4114 17.1701Z" fill="url(#paint3_linear_1988_151)"/>
<path opacity="0.2" d="M28.2884 26.2549L13.4174 35.2317C13.1218 35.4683 12.7615 35.5962 12.391 35.5962C12.0207 35.5962 11.6604 35.4683 11.3648 35.2317L11.293 35.3078L11.3648 35.3948C11.6604 35.6314 12.0207 35.7593 12.391 35.7593C12.7615 35.7593 13.1218 35.6314 13.4174 35.3948L28.4114 26.3528L28.2884 26.2549Z" fill="#24272C"/>
<path opacity="0.12" d="M11.2929 35.167C10.9633 34.7354 10.8017 34.1865 10.8413 33.6328V33.796C10.8064 34.3513 10.9798 34.8989 11.3237 35.3193L11.3955 35.2432L11.2929 35.167Z" fill="#24272C"/>
<path opacity="0.12" d="M33.4192 23.1762L28.2876 26.2555L28.38 26.3535L33.4192 23.3286C33.7165 23.1952 33.9746 22.9792 34.166 22.7035C34.3575 22.4279 34.4753 22.1025 34.507 21.7617C34.4429 22.0713 34.311 22.3607 34.122 22.6064C33.933 22.8521 33.6923 23.0472 33.4192 23.1762Z" fill="#24272C"/>
<path opacity="0.25" d="M13.4174 8.2912L33.4198 20.3473C33.6929 20.4762 33.9336 20.6714 34.1226 20.9171C34.3116 21.1628 34.4435 21.4522 34.5076 21.7618C34.4759 21.421 34.3581 21.0957 34.1666 20.82C33.9752 20.5442 33.7171 20.3283 33.4198 20.1949L13.4174 8.13886C11.9908 7.26839 10.8105 7.98653 10.8105 9.72748V9.8907C10.8413 8.14975 11.9908 7.43161 13.4174 8.2912Z" fill="white"/>
</g>
<defs>
<linearGradient id="paint0_linear_1988_151" x1="22.9526" y1="9.47715" x2="4.72553" y2="26.6689" gradientUnits="userSpaceOnUse">
<stop stop-color="#00A0FF"/>
<stop offset="0.01" stop-color="#00A1FF"/>
<stop offset="0.26" stop-color="#00BEFF"/>
<stop offset="0.51" stop-color="#00D2FF"/>
<stop offset="0.76" stop-color="#00DFFF"/>
<stop offset="1" stop-color="#00E3FF"/>
</linearGradient>
<linearGradient id="paint1_linear_1988_151" x1="35.2984" y1="21.7625" x2="10.4725" y2="21.7625" gradientUnits="userSpaceOnUse">
<stop stop-color="#FFE000"/>
<stop offset="0.41" stop-color="#FFBD00"/>
<stop offset="0.78" stop-color="#FFA500"/>
<stop offset="1" stop-color="#FF9C00"/>
</linearGradient>
<linearGradient id="paint2_linear_1988_151" x1="26.0613" y1="24.2643" x2="1.33919" y2="47.572" gradientUnits="userSpaceOnUse">
<stop stop-color="#FF3A44"/>
<stop offset="1" stop-color="#C31162"/>
</linearGradient>
<linearGradient id="paint3_linear_1988_151" x1="8.07042" y1="0.195931" x2="19.1066" y2="10.6052" gradientUnits="userSpaceOnUse">
<stop stop-color="#32A071"/>
<stop offset="0.07" stop-color="#2DA771"/>
<stop offset="0.48" stop-color="#15CF74"/>
<stop offset="0.8" stop-color="#06E775"/>
<stop offset="1" stop-color="#00F076"/>
</linearGradient>
<clipPath id="clip0_1988_151">
<rect width="164.421" height="44" fill="white" transform="translate(0.579102)"/>
</clipPath>
</defs>
</svg>
