<svg width="176" height="175" viewBox="0 0 176 175" fill="none" xmlns="http://www.w3.org/2000/svg">
<g clip-path="url(#clip0_1988_178)">
<path d="M175.5 0H0.5V175H175.5V0Z" fill="white"/>
<path d="M21.431 16H16.5V20.931H21.431V16Z" fill="black"/>
<path d="M26.3621 16H21.431V20.931H26.3621V16Z" fill="black"/>
<path d="M31.2931 16H26.3621V20.931H31.2931V16Z" fill="black"/>
<path d="M36.2241 16H31.2931V20.931H36.2241V16Z" fill="black"/>
<path d="M41.1552 16H36.2241V20.931H41.1552V16Z" fill="black"/>
<path d="M46.0862 16H41.1552V20.931H46.0862V16Z" fill="black"/>
<path d="M51.0172 16H46.0862V20.931H51.0172V16Z" fill="black"/>
<path d="M60.8793 16H55.9483V20.931H60.8793V16Z" fill="black"/>
<path d="M75.6724 16H70.7414V20.931H75.6724V16Z" fill="black"/>
<path d="M80.6034 16H75.6724V20.931H80.6034V16Z" fill="black"/>
<path d="M90.4655 16H85.5345V20.931H90.4655V16Z" fill="black"/>
<path d="M95.3966 16H90.4655V20.931H95.3966V16Z" fill="black"/>
<path d="M100.328 16H95.3966V20.931H100.328V16Z" fill="black"/>
<path d="M105.259 16H100.328V20.931H105.259V16Z" fill="black"/>
<path d="M110.19 16H105.259V20.931H110.19V16Z" fill="black"/>
<path d="M115.121 16H110.19V20.931H115.121V16Z" fill="black"/>
<path d="M120.052 16H115.121V20.931H120.052V16Z" fill="black"/>
<path d="M129.914 16H124.983V20.931H129.914V16Z" fill="black"/>
<path d="M134.845 16H129.914V20.931H134.845V16Z" fill="black"/>
<path d="M139.776 16H134.845V20.931H139.776V16Z" fill="black"/>
<path d="M144.707 16H139.776V20.931H144.707V16Z" fill="black"/>
<path d="M149.638 16H144.707V20.931H149.638V16Z" fill="black"/>
<path d="M154.569 16H149.638V20.931H154.569V16Z" fill="black"/>
<path d="M159.5 16H154.569V20.931H159.5V16Z" fill="black"/>
<path d="M21.431 20.931H16.5V25.8621H21.431V20.931Z" fill="black"/>
<path d="M51.0172 20.931H46.0862V25.8621H51.0172V20.931Z" fill="black"/>
<path d="M65.8103 20.931H60.8793V25.8621H65.8103V20.931Z" fill="black"/>
<path d="M75.6724 20.931H70.7414V25.8621H75.6724V20.931Z" fill="black"/>
<path d="M80.6034 20.931H75.6724V25.8621H80.6034V20.931Z" fill="black"/>
<path d="M110.19 20.931H105.259V25.8621H110.19V20.931Z" fill="black"/>
<path d="M115.121 20.931H110.19V25.8621H115.121V20.931Z" fill="black"/>
<path d="M120.052 20.931H115.121V25.8621H120.052V20.931Z" fill="black"/>
<path d="M129.914 20.931H124.983V25.8621H129.914V20.931Z" fill="black"/>
<path d="M159.5 20.931H154.569V25.8621H159.5V20.931Z" fill="black"/>
<path d="M21.431 25.8621H16.5V30.7931H21.431V25.8621Z" fill="black"/>
<path d="M31.2931 25.8621H26.3621V30.7931H31.2931V25.8621Z" fill="black"/>
<path d="M36.2241 25.8621H31.2931V30.7931H36.2241V25.8621Z" fill="black"/>
<path d="M41.1552 25.8621H36.2241V30.7931H41.1552V25.8621Z" fill="black"/>
<path d="M51.0172 25.8621H46.0862V30.7931H51.0172V25.8621Z" fill="black"/>
<path d="M65.8103 25.8621H60.8793V30.7931H65.8103V25.8621Z" fill="black"/>
<path d="M70.7414 25.8621H65.8103V30.7931H70.7414V25.8621Z" fill="black"/>
<path d="M85.5345 25.8621H80.6034V30.7931H85.5345V25.8621Z" fill="black"/>
<path d="M95.3966 25.8621H90.4655V30.7931H95.3966V25.8621Z" fill="black"/>
<path d="M105.259 25.8621H100.328V30.7931H105.259V25.8621Z" fill="black"/>
<path d="M115.121 25.8621H110.19V30.7931H115.121V25.8621Z" fill="black"/>
<path d="M120.052 25.8621H115.121V30.7931H120.052V25.8621Z" fill="black"/>
<path d="M129.914 25.8621H124.983V30.7931H129.914V25.8621Z" fill="black"/>
<path d="M139.776 25.8621H134.845V30.7931H139.776V25.8621Z" fill="black"/>
<path d="M144.707 25.8621H139.776V30.7931H144.707V25.8621Z" fill="black"/>
<path d="M149.638 25.8621H144.707V30.7931H149.638V25.8621Z" fill="black"/>
<path d="M159.5 25.8621H154.569V30.7931H159.5V25.8621Z" fill="black"/>
<path d="M21.431 30.7931H16.5V35.7241H21.431V30.7931Z" fill="black"/>
<path d="M31.2931 30.7931H26.3621V35.7241H31.2931V30.7931Z" fill="black"/>
<path d="M36.2241 30.7931H31.2931V35.7241H36.2241V30.7931Z" fill="black"/>
<path d="M41.1552 30.7931H36.2241V35.7241H41.1552V30.7931Z" fill="black"/>
<path d="M51.0172 30.7931H46.0862V35.7241H51.0172V30.7931Z" fill="black"/>
<path d="M60.8793 30.7931H55.9483V35.7241H60.8793V30.7931Z" fill="black"/>
<path d="M75.6724 30.7931H70.7414V35.7241H75.6724V30.7931Z" fill="black"/>
<path d="M85.5345 30.7931H80.6034V35.7241H85.5345V30.7931Z" fill="black"/>
<path d="M90.4655 30.7931H85.5345V35.7241H90.4655V30.7931Z" fill="black"/>
<path d="M95.3966 30.7931H90.4655V35.7241H95.3966V30.7931Z" fill="black"/>
<path d="M100.328 30.7931H95.3966V35.7241H100.328V30.7931Z" fill="black"/>
<path d="M110.19 30.7931H105.259V35.7241H110.19V30.7931Z" fill="black"/>
<path d="M129.914 30.7931H124.983V35.7241H129.914V30.7931Z" fill="black"/>
<path d="M139.776 30.7931H134.845V35.7241H139.776V30.7931Z" fill="black"/>
<path d="M144.707 30.7931H139.776V35.7241H144.707V30.7931Z" fill="black"/>
<path d="M149.638 30.7931H144.707V35.7241H149.638V30.7931Z" fill="black"/>
<path d="M159.5 30.7931H154.569V35.7241H159.5V30.7931Z" fill="black"/>
<path d="M21.431 35.7241H16.5V40.6552H21.431V35.7241Z" fill="black"/>
<path d="M31.2931 35.7241H26.3621V40.6552H31.2931V35.7241Z" fill="black"/>
<path d="M36.2241 35.7241H31.2931V40.6552H36.2241V35.7241Z" fill="black"/>
<path d="M41.1552 35.7241H36.2241V40.6552H41.1552V35.7241Z" fill="black"/>
<path d="M51.0172 35.7241H46.0862V40.6552H51.0172V35.7241Z" fill="black"/>
<path d="M60.8793 35.7241H55.9483V40.6552H60.8793V35.7241Z" fill="black"/>
<path d="M65.8103 35.7241H60.8793V40.6552H65.8103V35.7241Z" fill="black"/>
<path d="M70.7414 35.7241H65.8103V40.6552H70.7414V35.7241Z" fill="black"/>
<path d="M80.6034 35.7241H75.6724V40.6552H80.6034V35.7241Z" fill="black"/>
<path d="M85.5345 35.7241H80.6034V40.6552H85.5345V35.7241Z" fill="black"/>
<path d="M95.3966 35.7241H90.4655V40.6552H95.3966V35.7241Z" fill="black"/>
<path d="M110.19 35.7241H105.259V40.6552H110.19V35.7241Z" fill="black"/>
<path d="M120.052 35.7241H115.121V40.6552H120.052V35.7241Z" fill="black"/>
<path d="M129.914 35.7241H124.983V40.6552H129.914V35.7241Z" fill="black"/>
<path d="M139.776 35.7241H134.845V40.6552H139.776V35.7241Z" fill="black"/>
<path d="M144.707 35.7241H139.776V40.6552H144.707V35.7241Z" fill="black"/>
<path d="M149.638 35.7241H144.707V40.6552H149.638V35.7241Z" fill="black"/>
<path d="M159.5 35.7241H154.569V40.6552H159.5V35.7241Z" fill="black"/>
<path d="M21.431 40.6552H16.5V45.5862H21.431V40.6552Z" fill="black"/>
<path d="M51.0172 40.6552H46.0862V45.5862H51.0172V40.6552Z" fill="black"/>
<path d="M60.8793 40.6552H55.9483V45.5862H60.8793V40.6552Z" fill="black"/>
<path d="M65.8103 40.6552H60.8793V45.5862H65.8103V40.6552Z" fill="black"/>
<path d="M75.6724 40.6552H70.7414V45.5862H75.6724V40.6552Z" fill="black"/>
<path d="M85.5345 40.6552H80.6034V45.5862H85.5345V40.6552Z" fill="black"/>
<path d="M105.259 40.6552H100.328V45.5862H105.259V40.6552Z" fill="black"/>
<path d="M110.19 40.6552H105.259V45.5862H110.19V40.6552Z" fill="black"/>
<path d="M129.914 40.6552H124.983V45.5862H129.914V40.6552Z" fill="black"/>
<path d="M159.5 40.6552H154.569V45.5862H159.5V40.6552Z" fill="black"/>
<path d="M21.431 45.5862H16.5V50.5172H21.431V45.5862Z" fill="black"/>
<path d="M26.3621 45.5862H21.431V50.5172H26.3621V45.5862Z" fill="black"/>
<path d="M31.2931 45.5862H26.3621V50.5172H31.2931V45.5862Z" fill="black"/>
<path d="M36.2241 45.5862H31.2931V50.5172H36.2241V45.5862Z" fill="black"/>
<path d="M41.1552 45.5862H36.2241V50.5172H41.1552V45.5862Z" fill="black"/>
<path d="M46.0862 45.5862H41.1552V50.5172H46.0862V45.5862Z" fill="black"/>
<path d="M51.0172 45.5862H46.0862V50.5172H51.0172V45.5862Z" fill="black"/>
<path d="M60.8793 45.5862H55.9483V50.5172H60.8793V45.5862Z" fill="black"/>
<path d="M70.7414 45.5862H65.8103V50.5172H70.7414V45.5862Z" fill="black"/>
<path d="M80.6034 45.5862H75.6724V50.5172H80.6034V45.5862Z" fill="black"/>
<path d="M90.4655 45.5862H85.5345V50.5172H90.4655V45.5862Z" fill="black"/>
<path d="M100.328 45.5862H95.3966V50.5172H100.328V45.5862Z" fill="black"/>
<path d="M110.19 45.5862H105.259V50.5172H110.19V45.5862Z" fill="black"/>
<path d="M120.052 45.5862H115.121V50.5172H120.052V45.5862Z" fill="black"/>
<path d="M129.914 45.5862H124.983V50.5172H129.914V45.5862Z" fill="black"/>
<path d="M134.845 45.5862H129.914V50.5172H134.845V45.5862Z" fill="black"/>
<path d="M139.776 45.5862H134.845V50.5172H139.776V45.5862Z" fill="black"/>
<path d="M144.707 45.5862H139.776V50.5172H144.707V45.5862Z" fill="black"/>
<path d="M149.638 45.5862H144.707V50.5172H149.638V45.5862Z" fill="black"/>
<path d="M154.569 45.5862H149.638V50.5172H154.569V45.5862Z" fill="black"/>
<path d="M159.5 45.5862H154.569V50.5172H159.5V45.5862Z" fill="black"/>
<path d="M60.8793 50.5172H55.9483V55.4483H60.8793V50.5172Z" fill="black"/>
<path d="M65.8103 50.5172H60.8793V55.4483H65.8103V50.5172Z" fill="black"/>
<path d="M75.6724 50.5172H70.7414V55.4483H75.6724V50.5172Z" fill="black"/>
<path d="M80.6034 50.5172H75.6724V55.4483H80.6034V50.5172Z" fill="black"/>
<path d="M95.3966 50.5172H90.4655V55.4483H95.3966V50.5172Z" fill="black"/>
<path d="M100.328 50.5172H95.3966V55.4483H100.328V50.5172Z" fill="black"/>
<path d="M110.19 50.5172H105.259V55.4483H110.19V50.5172Z" fill="black"/>
<path d="M21.431 55.4483H16.5V60.3793H21.431V55.4483Z" fill="black"/>
<path d="M26.3621 55.4483H21.431V60.3793H26.3621V55.4483Z" fill="black"/>
<path d="M31.2931 55.4483H26.3621V60.3793H31.2931V55.4483Z" fill="black"/>
<path d="M41.1552 55.4483H36.2241V60.3793H41.1552V55.4483Z" fill="black"/>
<path d="M51.0172 55.4483H46.0862V60.3793H51.0172V55.4483Z" fill="black"/>
<path d="M60.8793 55.4483H55.9483V60.3793H60.8793V55.4483Z" fill="black"/>
<path d="M65.8103 55.4483H60.8793V60.3793H65.8103V55.4483Z" fill="black"/>
<path d="M75.6724 55.4483H70.7414V60.3793H75.6724V55.4483Z" fill="black"/>
<path d="M85.5345 55.4483H80.6034V60.3793H85.5345V55.4483Z" fill="black"/>
<path d="M90.4655 55.4483H85.5345V60.3793H90.4655V55.4483Z" fill="black"/>
<path d="M95.3966 55.4483H90.4655V60.3793H95.3966V55.4483Z" fill="black"/>
<path d="M100.328 55.4483H95.3966V60.3793H100.328V55.4483Z" fill="black"/>
<path d="M105.259 55.4483H100.328V60.3793H105.259V55.4483Z" fill="black"/>
<path d="M110.19 55.4483H105.259V60.3793H110.19V55.4483Z" fill="black"/>
<path d="M115.121 55.4483H110.19V60.3793H115.121V55.4483Z" fill="black"/>
<path d="M120.052 55.4483H115.121V60.3793H120.052V55.4483Z" fill="black"/>
<path d="M124.983 55.4483H120.052V60.3793H124.983V55.4483Z" fill="black"/>
<path d="M129.914 55.4483H124.983V60.3793H129.914V55.4483Z" fill="black"/>
<path d="M134.845 55.4483H129.914V60.3793H134.845V55.4483Z" fill="black"/>
<path d="M139.776 55.4483H134.845V60.3793H139.776V55.4483Z" fill="black"/>
<path d="M144.707 55.4483H139.776V60.3793H144.707V55.4483Z" fill="black"/>
<path d="M159.5 55.4483H154.569V60.3793H159.5V55.4483Z" fill="black"/>
<path d="M31.2931 60.3793H26.3621V65.3103H31.2931V60.3793Z" fill="black"/>
<path d="M36.2241 60.3793H31.2931V65.3103H36.2241V60.3793Z" fill="black"/>
<path d="M41.1552 60.3793H36.2241V65.3103H41.1552V60.3793Z" fill="black"/>
<path d="M46.0862 60.3793H41.1552V65.3103H46.0862V60.3793Z" fill="black"/>
<path d="M55.9483 60.3793H51.0172V65.3103H55.9483V60.3793Z" fill="black"/>
<path d="M75.6724 60.3793H70.7414V65.3103H75.6724V60.3793Z" fill="black"/>
<path d="M80.6034 60.3793H75.6724V65.3103H80.6034V60.3793Z" fill="black"/>
<path d="M85.5345 60.3793H80.6034V65.3103H85.5345V60.3793Z" fill="black"/>
<path d="M95.3966 60.3793H90.4655V65.3103H95.3966V60.3793Z" fill="black"/>
<path d="M110.19 60.3793H105.259V65.3103H110.19V60.3793Z" fill="black"/>
<path d="M115.121 60.3793H110.19V65.3103H115.121V60.3793Z" fill="black"/>
<path d="M124.983 60.3793H120.052V65.3103H124.983V60.3793Z" fill="black"/>
<path d="M129.914 60.3793H124.983V65.3103H129.914V60.3793Z" fill="black"/>
<path d="M134.845 60.3793H129.914V65.3103H134.845V60.3793Z" fill="black"/>
<path d="M149.638 60.3793H144.707V65.3103H149.638V60.3793Z" fill="black"/>
<path d="M41.1552 65.3103H36.2241V70.2414H41.1552V65.3103Z" fill="black"/>
<path d="M51.0172 65.3103H46.0862V70.2414H51.0172V65.3103Z" fill="black"/>
<path d="M65.8103 65.3103H60.8793V70.2414H65.8103V65.3103Z" fill="black"/>
<path d="M90.4655 65.3103H85.5345V70.2414H90.4655V65.3103Z" fill="black"/>
<path d="M105.259 65.3103H100.328V70.2414H105.259V65.3103Z" fill="black"/>
<path d="M110.19 65.3103H105.259V70.2414H110.19V65.3103Z" fill="black"/>
<path d="M124.983 65.3103H120.052V70.2414H124.983V65.3103Z" fill="black"/>
<path d="M129.914 65.3103H124.983V70.2414H129.914V65.3103Z" fill="black"/>
<path d="M134.845 65.3103H129.914V70.2414H134.845V65.3103Z" fill="black"/>
<path d="M139.776 65.3103H134.845V70.2414H139.776V65.3103Z" fill="black"/>
<path d="M149.638 65.3103H144.707V70.2414H149.638V65.3103Z" fill="black"/>
<path d="M154.569 65.3103H149.638V70.2414H154.569V65.3103Z" fill="black"/>
<path d="M159.5 65.3103H154.569V70.2414H159.5V65.3103Z" fill="black"/>
<path d="M26.3621 70.2414H21.431V75.1724H26.3621V70.2414Z" fill="black"/>
<path d="M41.1552 70.2414H36.2241V75.1724H41.1552V70.2414Z" fill="black"/>
<path d="M60.8793 70.2414H55.9483V75.1724H60.8793V70.2414Z" fill="black"/>
<path d="M65.8103 70.2414H60.8793V75.1724H65.8103V70.2414Z" fill="black"/>
<path d="M75.6724 70.2414H70.7414V75.1724H75.6724V70.2414Z" fill="black"/>
<path d="M90.4655 70.2414H85.5345V75.1724H90.4655V70.2414Z" fill="black"/>
<path d="M95.3966 70.2414H90.4655V75.1724H95.3966V70.2414Z" fill="black"/>
<path d="M100.328 70.2414H95.3966V75.1724H100.328V70.2414Z" fill="black"/>
<path d="M110.19 70.2414H105.259V75.1724H110.19V70.2414Z" fill="black"/>
<path d="M115.121 70.2414H110.19V75.1724H115.121V70.2414Z" fill="black"/>
<path d="M124.983 70.2414H120.052V75.1724H124.983V70.2414Z" fill="black"/>
<path d="M129.914 70.2414H124.983V75.1724H129.914V70.2414Z" fill="black"/>
<path d="M134.845 70.2414H129.914V75.1724H134.845V70.2414Z" fill="black"/>
<path d="M144.707 70.2414H139.776V75.1724H144.707V70.2414Z" fill="black"/>
<path d="M21.431 75.1724H16.5V80.1034H21.431V75.1724Z" fill="black"/>
<path d="M26.3621 75.1724H21.431V80.1034H26.3621V75.1724Z" fill="black"/>
<path d="M31.2931 75.1724H26.3621V80.1034H31.2931V75.1724Z" fill="black"/>
<path d="M51.0172 75.1724H46.0862V80.1034H51.0172V75.1724Z" fill="black"/>
<path d="M75.6724 75.1724H70.7414V80.1034H75.6724V75.1724Z" fill="black"/>
<path d="M80.6034 75.1724H75.6724V80.1034H80.6034V75.1724Z" fill="black"/>
<path d="M85.5345 75.1724H80.6034V80.1034H85.5345V75.1724Z" fill="black"/>
<path d="M95.3966 75.1724H90.4655V80.1034H95.3966V75.1724Z" fill="black"/>
<path d="M100.328 75.1724H95.3966V80.1034H100.328V75.1724Z" fill="black"/>
<path d="M105.259 75.1724H100.328V80.1034H105.259V75.1724Z" fill="black"/>
<path d="M110.19 75.1724H105.259V80.1034H110.19V75.1724Z" fill="black"/>
<path d="M134.845 75.1724H129.914V80.1034H134.845V75.1724Z" fill="black"/>
<path d="M144.707 75.1724H139.776V80.1034H144.707V75.1724Z" fill="black"/>
<path d="M154.569 75.1724H149.638V80.1034H154.569V75.1724Z" fill="black"/>
<path d="M159.5 75.1724H154.569V80.1034H159.5V75.1724Z" fill="black"/>
<path d="M55.9483 80.1034H51.0172V85.0345H55.9483V80.1034Z" fill="black"/>
<path d="M60.8793 80.1034H55.9483V85.0345H60.8793V80.1034Z" fill="black"/>
<path d="M65.8103 80.1034H60.8793V85.0345H65.8103V80.1034Z" fill="black"/>
<path d="M70.7414 80.1034H65.8103V85.0345H70.7414V80.1034Z" fill="black"/>
<path d="M75.6724 80.1034H70.7414V85.0345H75.6724V80.1034Z" fill="black"/>
<path d="M80.6034 80.1034H75.6724V85.0345H80.6034V80.1034Z" fill="black"/>
<path d="M85.5345 80.1034H80.6034V85.0345H85.5345V80.1034Z" fill="black"/>
<path d="M90.4655 80.1034H85.5345V85.0345H90.4655V80.1034Z" fill="black"/>
<path d="M105.259 80.1034H100.328V85.0345H105.259V80.1034Z" fill="black"/>
<path d="M120.052 80.1034H115.121V85.0345H120.052V80.1034Z" fill="black"/>
<path d="M139.776 80.1034H134.845V85.0345H139.776V80.1034Z" fill="black"/>
<path d="M144.707 80.1034H139.776V85.0345H144.707V80.1034Z" fill="black"/>
<path d="M41.1552 85.0345H36.2241V89.9655H41.1552V85.0345Z" fill="black"/>
<path d="M51.0172 85.0345H46.0862V89.9655H51.0172V85.0345Z" fill="black"/>
<path d="M85.5345 85.0345H80.6034V89.9655H85.5345V85.0345Z" fill="black"/>
<path d="M100.328 85.0345H95.3966V89.9655H100.328V85.0345Z" fill="black"/>
<path d="M105.259 85.0345H100.328V89.9655H105.259V85.0345Z" fill="black"/>
<path d="M115.121 85.0345H110.19V89.9655H115.121V85.0345Z" fill="black"/>
<path d="M120.052 85.0345H115.121V89.9655H120.052V85.0345Z" fill="black"/>
<path d="M124.983 85.0345H120.052V89.9655H124.983V85.0345Z" fill="black"/>
<path d="M129.914 85.0345H124.983V89.9655H129.914V85.0345Z" fill="black"/>
<path d="M134.845 85.0345H129.914V89.9655H134.845V85.0345Z" fill="black"/>
<path d="M139.776 85.0345H134.845V89.9655H139.776V85.0345Z" fill="black"/>
<path d="M154.569 85.0345H149.638V89.9655H154.569V85.0345Z" fill="black"/>
<path d="M21.431 89.9655H16.5V94.8966H21.431V89.9655Z" fill="black"/>
<path d="M31.2931 89.9655H26.3621V94.8966H31.2931V89.9655Z" fill="black"/>
<path d="M41.1552 89.9655H36.2241V94.8966H41.1552V89.9655Z" fill="black"/>
<path d="M46.0862 89.9655H41.1552V94.8966H46.0862V89.9655Z" fill="black"/>
<path d="M55.9483 89.9655H51.0172V94.8966H55.9483V89.9655Z" fill="black"/>
<path d="M70.7414 89.9655H65.8103V94.8966H70.7414V89.9655Z" fill="black"/>
<path d="M80.6034 89.9655H75.6724V94.8966H80.6034V89.9655Z" fill="black"/>
<path d="M95.3966 89.9655H90.4655V94.8966H95.3966V89.9655Z" fill="black"/>
<path d="M110.19 89.9655H105.259V94.8966H110.19V89.9655Z" fill="black"/>
<path d="M120.052 89.9655H115.121V94.8966H120.052V89.9655Z" fill="black"/>
<path d="M134.845 89.9655H129.914V94.8966H134.845V89.9655Z" fill="black"/>
<path d="M149.638 89.9655H144.707V94.8966H149.638V89.9655Z" fill="black"/>
<path d="M154.569 89.9655H149.638V94.8966H154.569V89.9655Z" fill="black"/>
<path d="M159.5 89.9655H154.569V94.8966H159.5V89.9655Z" fill="black"/>
<path d="M21.431 94.8966H16.5V99.8276H21.431V94.8966Z" fill="black"/>
<path d="M26.3621 94.8966H21.431V99.8276H26.3621V94.8966Z" fill="black"/>
<path d="M31.2931 94.8966H26.3621V99.8276H31.2931V94.8966Z" fill="black"/>
<path d="M36.2241 94.8966H31.2931V99.8276H36.2241V94.8966Z" fill="black"/>
<path d="M41.1552 94.8966H36.2241V99.8276H41.1552V94.8966Z" fill="black"/>
<path d="M46.0862 94.8966H41.1552V99.8276H46.0862V94.8966Z" fill="black"/>
<path d="M51.0172 94.8966H46.0862V99.8276H51.0172V94.8966Z" fill="black"/>
<path d="M55.9483 94.8966H51.0172V99.8276H55.9483V94.8966Z" fill="black"/>
<path d="M65.8103 94.8966H60.8793V99.8276H65.8103V94.8966Z" fill="black"/>
<path d="M70.7414 94.8966H65.8103V99.8276H70.7414V94.8966Z" fill="black"/>
<path d="M75.6724 94.8966H70.7414V99.8276H75.6724V94.8966Z" fill="black"/>
<path d="M80.6034 94.8966H75.6724V99.8276H80.6034V94.8966Z" fill="black"/>
<path d="M85.5345 94.8966H80.6034V99.8276H85.5345V94.8966Z" fill="black"/>
<path d="M90.4655 94.8966H85.5345V99.8276H90.4655V94.8966Z" fill="black"/>
<path d="M100.328 94.8966H95.3966V99.8276H100.328V94.8966Z" fill="black"/>
<path d="M105.259 94.8966H100.328V99.8276H105.259V94.8966Z" fill="black"/>
<path d="M120.052 94.8966H115.121V99.8276H120.052V94.8966Z" fill="black"/>
<path d="M139.776 94.8966H134.845V99.8276H139.776V94.8966Z" fill="black"/>
<path d="M149.638 94.8966H144.707V99.8276H149.638V94.8966Z" fill="black"/>
<path d="M159.5 94.8966H154.569V99.8276H159.5V94.8966Z" fill="black"/>
<path d="M36.2241 99.8276H31.2931V104.759H36.2241V99.8276Z" fill="black"/>
<path d="M41.1552 99.8276H36.2241V104.759H41.1552V99.8276Z" fill="black"/>
<path d="M46.0862 99.8276H41.1552V104.759H46.0862V99.8276Z" fill="black"/>
<path d="M60.8793 99.8276H55.9483V104.759H60.8793V99.8276Z" fill="black"/>
<path d="M75.6724 99.8276H70.7414V104.759H75.6724V99.8276Z" fill="black"/>
<path d="M90.4655 99.8276H85.5345V104.759H90.4655V99.8276Z" fill="black"/>
<path d="M105.259 99.8276H100.328V104.759H105.259V99.8276Z" fill="black"/>
<path d="M110.19 99.8276H105.259V104.759H110.19V99.8276Z" fill="black"/>
<path d="M120.052 99.8276H115.121V104.759H120.052V99.8276Z" fill="black"/>
<path d="M124.983 99.8276H120.052V104.759H124.983V99.8276Z" fill="black"/>
<path d="M129.914 99.8276H124.983V104.759H129.914V99.8276Z" fill="black"/>
<path d="M134.845 99.8276H129.914V104.759H134.845V99.8276Z" fill="black"/>
<path d="M144.707 99.8276H139.776V104.759H144.707V99.8276Z" fill="black"/>
<path d="M149.638 99.8276H144.707V104.759H149.638V99.8276Z" fill="black"/>
<path d="M26.3621 104.759H21.431V109.69H26.3621V104.759Z" fill="black"/>
<path d="M31.2931 104.759H26.3621V109.69H31.2931V104.759Z" fill="black"/>
<path d="M51.0172 104.759H46.0862V109.69H51.0172V104.759Z" fill="black"/>
<path d="M70.7414 104.759H65.8103V109.69H70.7414V104.759Z" fill="black"/>
<path d="M75.6724 104.759H70.7414V109.69H75.6724V104.759Z" fill="black"/>
<path d="M90.4655 104.759H85.5345V109.69H90.4655V104.759Z" fill="black"/>
<path d="M95.3966 104.759H90.4655V109.69H95.3966V104.759Z" fill="black"/>
<path d="M105.259 104.759H100.328V109.69H105.259V104.759Z" fill="black"/>
<path d="M110.19 104.759H105.259V109.69H110.19V104.759Z" fill="black"/>
<path d="M124.983 104.759H120.052V109.69H124.983V104.759Z" fill="black"/>
<path d="M144.707 104.759H139.776V109.69H144.707V104.759Z" fill="black"/>
<path d="M26.3621 109.69H21.431V114.621H26.3621V109.69Z" fill="black"/>
<path d="M36.2241 109.69H31.2931V114.621H36.2241V109.69Z" fill="black"/>
<path d="M41.1552 109.69H36.2241V114.621H41.1552V109.69Z" fill="black"/>
<path d="M65.8103 109.69H60.8793V114.621H65.8103V109.69Z" fill="black"/>
<path d="M75.6724 109.69H70.7414V114.621H75.6724V109.69Z" fill="black"/>
<path d="M90.4655 109.69H85.5345V114.621H90.4655V109.69Z" fill="black"/>
<path d="M95.3966 109.69H90.4655V114.621H95.3966V109.69Z" fill="black"/>
<path d="M105.259 109.69H100.328V114.621H105.259V109.69Z" fill="black"/>
<path d="M110.19 109.69H105.259V114.621H110.19V109.69Z" fill="black"/>
<path d="M129.914 109.69H124.983V114.621H129.914V109.69Z" fill="black"/>
<path d="M134.845 109.69H129.914V114.621H134.845V109.69Z" fill="black"/>
<path d="M139.776 109.69H134.845V114.621H139.776V109.69Z" fill="black"/>
<path d="M144.707 109.69H139.776V114.621H144.707V109.69Z" fill="black"/>
<path d="M149.638 109.69H144.707V114.621H149.638V109.69Z" fill="black"/>
<path d="M154.569 109.69H149.638V114.621H154.569V109.69Z" fill="black"/>
<path d="M159.5 109.69H154.569V114.621H159.5V109.69Z" fill="black"/>
<path d="M26.3621 114.621H21.431V119.552H26.3621V114.621Z" fill="black"/>
<path d="M31.2931 114.621H26.3621V119.552H31.2931V114.621Z" fill="black"/>
<path d="M36.2241 114.621H31.2931V119.552H36.2241V114.621Z" fill="black"/>
<path d="M46.0862 114.621H41.1552V119.552H46.0862V114.621Z" fill="black"/>
<path d="M51.0172 114.621H46.0862V119.552H51.0172V114.621Z" fill="black"/>
<path d="M70.7414 114.621H65.8103V119.552H70.7414V114.621Z" fill="black"/>
<path d="M80.6034 114.621H75.6724V119.552H80.6034V114.621Z" fill="black"/>
<path d="M95.3966 114.621H90.4655V119.552H95.3966V114.621Z" fill="black"/>
<path d="M100.328 114.621H95.3966V119.552H100.328V114.621Z" fill="black"/>
<path d="M105.259 114.621H100.328V119.552H105.259V114.621Z" fill="black"/>
<path d="M120.052 114.621H115.121V119.552H120.052V114.621Z" fill="black"/>
<path d="M124.983 114.621H120.052V119.552H124.983V114.621Z" fill="black"/>
<path d="M129.914 114.621H124.983V119.552H129.914V114.621Z" fill="black"/>
<path d="M134.845 114.621H129.914V119.552H134.845V114.621Z" fill="black"/>
<path d="M139.776 114.621H134.845V119.552H139.776V114.621Z" fill="black"/>
<path d="M159.5 114.621H154.569V119.552H159.5V114.621Z" fill="black"/>
<path d="M60.8793 119.552H55.9483V124.483H60.8793V119.552Z" fill="black"/>
<path d="M75.6724 119.552H70.7414V124.483H75.6724V119.552Z" fill="black"/>
<path d="M85.5345 119.552H80.6034V124.483H85.5345V119.552Z" fill="black"/>
<path d="M90.4655 119.552H85.5345V124.483H90.4655V119.552Z" fill="black"/>
<path d="M95.3966 119.552H90.4655V124.483H95.3966V119.552Z" fill="black"/>
<path d="M105.259 119.552H100.328V124.483H105.259V119.552Z" fill="black"/>
<path d="M115.121 119.552H110.19V124.483H115.121V119.552Z" fill="black"/>
<path d="M120.052 119.552H115.121V124.483H120.052V119.552Z" fill="black"/>
<path d="M139.776 119.552H134.845V124.483H139.776V119.552Z" fill="black"/>
<path d="M144.707 119.552H139.776V124.483H144.707V119.552Z" fill="black"/>
<path d="M159.5 119.552H154.569V124.483H159.5V119.552Z" fill="black"/>
<path d="M21.431 124.483H16.5V129.414H21.431V124.483Z" fill="black"/>
<path d="M26.3621 124.483H21.431V129.414H26.3621V124.483Z" fill="black"/>
<path d="M31.2931 124.483H26.3621V129.414H31.2931V124.483Z" fill="black"/>
<path d="M36.2241 124.483H31.2931V129.414H36.2241V124.483Z" fill="black"/>
<path d="M41.1552 124.483H36.2241V129.414H41.1552V124.483Z" fill="black"/>
<path d="M46.0862 124.483H41.1552V129.414H46.0862V124.483Z" fill="black"/>
<path d="M51.0172 124.483H46.0862V129.414H51.0172V124.483Z" fill="black"/>
<path d="M70.7414 124.483H65.8103V129.414H70.7414V124.483Z" fill="black"/>
<path d="M80.6034 124.483H75.6724V129.414H80.6034V124.483Z" fill="black"/>
<path d="M85.5345 124.483H80.6034V129.414H85.5345V124.483Z" fill="black"/>
<path d="M90.4655 124.483H85.5345V129.414H90.4655V124.483Z" fill="black"/>
<path d="M110.19 124.483H105.259V129.414H110.19V124.483Z" fill="black"/>
<path d="M120.052 124.483H115.121V129.414H120.052V124.483Z" fill="black"/>
<path d="M129.914 124.483H124.983V129.414H129.914V124.483Z" fill="black"/>
<path d="M139.776 124.483H134.845V129.414H139.776V124.483Z" fill="black"/>
<path d="M21.431 129.414H16.5V134.345H21.431V129.414Z" fill="black"/>
<path d="M51.0172 129.414H46.0862V134.345H51.0172V129.414Z" fill="black"/>
<path d="M80.6034 129.414H75.6724V134.345H80.6034V129.414Z" fill="black"/>
<path d="M85.5345 129.414H80.6034V134.345H85.5345V129.414Z" fill="black"/>
<path d="M90.4655 129.414H85.5345V134.345H90.4655V129.414Z" fill="black"/>
<path d="M95.3966 129.414H90.4655V134.345H95.3966V129.414Z" fill="black"/>
<path d="M100.328 129.414H95.3966V134.345H100.328V129.414Z" fill="black"/>
<path d="M110.19 129.414H105.259V134.345H110.19V129.414Z" fill="black"/>
<path d="M115.121 129.414H110.19V134.345H115.121V129.414Z" fill="black"/>
<path d="M120.052 129.414H115.121V134.345H120.052V129.414Z" fill="black"/>
<path d="M139.776 129.414H134.845V134.345H139.776V129.414Z" fill="black"/>
<path d="M21.431 134.345H16.5V139.276H21.431V134.345Z" fill="black"/>
<path d="M31.2931 134.345H26.3621V139.276H31.2931V134.345Z" fill="black"/>
<path d="M36.2241 134.345H31.2931V139.276H36.2241V134.345Z" fill="black"/>
<path d="M41.1552 134.345H36.2241V139.276H41.1552V134.345Z" fill="black"/>
<path d="M51.0172 134.345H46.0862V139.276H51.0172V134.345Z" fill="black"/>
<path d="M60.8793 134.345H55.9483V139.276H60.8793V134.345Z" fill="black"/>
<path d="M65.8103 134.345H60.8793V139.276H65.8103V134.345Z" fill="black"/>
<path d="M70.7414 134.345H65.8103V139.276H70.7414V134.345Z" fill="black"/>
<path d="M75.6724 134.345H70.7414V139.276H75.6724V134.345Z" fill="black"/>
<path d="M85.5345 134.345H80.6034V139.276H85.5345V134.345Z" fill="black"/>
<path d="M90.4655 134.345H85.5345V139.276H90.4655V134.345Z" fill="black"/>
<path d="M105.259 134.345H100.328V139.276H105.259V134.345Z" fill="black"/>
<path d="M120.052 134.345H115.121V139.276H120.052V134.345Z" fill="black"/>
<path d="M124.983 134.345H120.052V139.276H124.983V134.345Z" fill="black"/>
<path d="M129.914 134.345H124.983V139.276H129.914V134.345Z" fill="black"/>
<path d="M134.845 134.345H129.914V139.276H134.845V134.345Z" fill="black"/>
<path d="M139.776 134.345H134.845V139.276H139.776V134.345Z" fill="black"/>
<path d="M149.638 134.345H144.707V139.276H149.638V134.345Z" fill="black"/>
<path d="M154.569 134.345H149.638V139.276H154.569V134.345Z" fill="black"/>
<path d="M159.5 134.345H154.569V139.276H159.5V134.345Z" fill="black"/>
<path d="M21.431 139.276H16.5V144.207H21.431V139.276Z" fill="black"/>
<path d="M31.2931 139.276H26.3621V144.207H31.2931V139.276Z" fill="black"/>
<path d="M36.2241 139.276H31.2931V144.207H36.2241V139.276Z" fill="black"/>
<path d="M41.1552 139.276H36.2241V144.207H41.1552V139.276Z" fill="black"/>
<path d="M51.0172 139.276H46.0862V144.207H51.0172V139.276Z" fill="black"/>
<path d="M75.6724 139.276H70.7414V144.207H75.6724V139.276Z" fill="black"/>
<path d="M85.5345 139.276H80.6034V144.207H85.5345V139.276Z" fill="black"/>
<path d="M100.328 139.276H95.3966V144.207H100.328V139.276Z" fill="black"/>
<path d="M110.19 139.276H105.259V144.207H110.19V139.276Z" fill="black"/>
<path d="M115.121 139.276H110.19V144.207H115.121V139.276Z" fill="black"/>
<path d="M120.052 139.276H115.121V144.207H120.052V139.276Z" fill="black"/>
<path d="M124.983 139.276H120.052V144.207H124.983V139.276Z" fill="black"/>
<path d="M129.914 139.276H124.983V144.207H129.914V139.276Z" fill="black"/>
<path d="M139.776 139.276H134.845V144.207H139.776V139.276Z" fill="black"/>
<path d="M154.569 139.276H149.638V144.207H154.569V139.276Z" fill="black"/>
<path d="M159.5 139.276H154.569V144.207H159.5V139.276Z" fill="black"/>
<path d="M21.431 144.207H16.5V149.138H21.431V144.207Z" fill="black"/>
<path d="M31.2931 144.207H26.3621V149.138H31.2931V144.207Z" fill="black"/>
<path d="M36.2241 144.207H31.2931V149.138H36.2241V144.207Z" fill="black"/>
<path d="M41.1552 144.207H36.2241V149.138H41.1552V144.207Z" fill="black"/>
<path d="M51.0172 144.207H46.0862V149.138H51.0172V144.207Z" fill="black"/>
<path d="M60.8793 144.207H55.9483V149.138H60.8793V144.207Z" fill="black"/>
<path d="M65.8103 144.207H60.8793V149.138H65.8103V144.207Z" fill="black"/>
<path d="M70.7414 144.207H65.8103V149.138H70.7414V144.207Z" fill="black"/>
<path d="M85.5345 144.207H80.6034V149.138H85.5345V144.207Z" fill="black"/>
<path d="M90.4655 144.207H85.5345V149.138H90.4655V144.207Z" fill="black"/>
<path d="M95.3966 144.207H90.4655V149.138H95.3966V144.207Z" fill="black"/>
<path d="M105.259 144.207H100.328V149.138H105.259V144.207Z" fill="black"/>
<path d="M115.121 144.207H110.19V149.138H115.121V144.207Z" fill="black"/>
<path d="M120.052 144.207H115.121V149.138H120.052V144.207Z" fill="black"/>
<path d="M149.638 144.207H144.707V149.138H149.638V144.207Z" fill="black"/>
<path d="M154.569 144.207H149.638V149.138H154.569V144.207Z" fill="black"/>
<path d="M21.431 149.138H16.5V154.069H21.431V149.138Z" fill="black"/>
<path d="M51.0172 149.138H46.0862V154.069H51.0172V149.138Z" fill="black"/>
<path d="M60.8793 149.138H55.9483V154.069H60.8793V149.138Z" fill="black"/>
<path d="M65.8103 149.138H60.8793V154.069H65.8103V149.138Z" fill="black"/>
<path d="M85.5345 149.138H80.6034V154.069H85.5345V149.138Z" fill="black"/>
<path d="M105.259 149.138H100.328V154.069H105.259V149.138Z" fill="black"/>
<path d="M120.052 149.138H115.121V154.069H120.052V149.138Z" fill="black"/>
<path d="M144.707 149.138H139.776V154.069H144.707V149.138Z" fill="black"/>
<path d="M149.638 149.138H144.707V154.069H149.638V149.138Z" fill="black"/>
<path d="M21.431 154.069H16.5V159H21.431V154.069Z" fill="black"/>
<path d="M26.3621 154.069H21.431V159H26.3621V154.069Z" fill="black"/>
<path d="M31.2931 154.069H26.3621V159H31.2931V154.069Z" fill="black"/>
<path d="M36.2241 154.069H31.2931V159H36.2241V154.069Z" fill="black"/>
<path d="M41.1552 154.069H36.2241V159H41.1552V154.069Z" fill="black"/>
<path d="M46.0862 154.069H41.1552V159H46.0862V154.069Z" fill="black"/>
<path d="M51.0172 154.069H46.0862V159H51.0172V154.069Z" fill="black"/>
<path d="M60.8793 154.069H55.9483V159H60.8793V154.069Z" fill="black"/>
<path d="M75.6724 154.069H70.7414V159H75.6724V154.069Z" fill="black"/>
<path d="M80.6034 154.069H75.6724V159H80.6034V154.069Z" fill="black"/>
<path d="M85.5345 154.069H80.6034V159H85.5345V154.069Z" fill="black"/>
<path d="M90.4655 154.069H85.5345V159H90.4655V154.069Z" fill="black"/>
<path d="M95.3966 154.069H90.4655V159H95.3966V154.069Z" fill="black"/>
<path d="M110.19 154.069H105.259V159H110.19V154.069Z" fill="black"/>
<path d="M149.638 154.069H144.707V159H149.638V154.069Z" fill="black"/>
<path d="M154.569 154.069H149.638V159H154.569V154.069Z" fill="black"/>
</g>
<defs>
<clipPath id="clip0_1988_178">
<rect width="175" height="175" fill="white" transform="translate(0.5)"/>
</clipPath>
</defs>
</svg>
