<svg width="20" height="20" viewBox="0 0 20 20" fill="none" xmlns="http://www.w3.org/2000/svg">
<g clip-path="url(#clip0_1987_216)">
<path d="M14.1667 15.8333H15.8333V11.6667H8.33333V4.16667H4.16667V5.83333H5.83333V7.5H4.16667V9.16667H6.66667V10.8333H4.16667V12.5H5.83333V14.1667H4.16667V15.8333H5.83333V14.1667H7.5V15.8333H9.16667V13.3333H10.8333V15.8333H12.5V14.1667H14.1667V15.8333ZM10 10H16.6667C16.8877 10 17.0996 10.0878 17.2559 10.2441C17.4122 10.4004 17.5 10.6123 17.5 10.8333V16.6667C17.5 16.8877 17.4122 17.0996 17.2559 17.2559C17.0996 17.4122 16.8877 17.5 16.6667 17.5H3.33333C3.11232 17.5 2.90036 17.4122 2.74408 17.2559C2.5878 17.0996 2.5 16.8877 2.5 16.6667V3.33333C2.5 3.11232 2.5878 2.90036 2.74408 2.74408C2.90036 2.5878 3.11232 2.5 3.33333 2.5H9.16667C9.38768 2.5 9.59964 2.5878 9.75592 2.74408C9.9122 2.90036 10 3.11232 10 3.33333V10Z" fill="#ACACAC"/>
</g>
<defs>
<clipPath id="clip0_1987_216">
<rect width="20" height="20" fill="white"/>
</clipPath>
</defs>
</svg>
