<svg width="32" height="32" viewBox="0 0 32 32" fill="none" xmlns="http://www.w3.org/2000/svg">
<path d="M2.96395 16.138L8.852 18.1376L22.8324 9.59077C23.0354 9.46734 23.243 9.74254 23.0683 9.90345L12.4845 19.6452L12.0913 25.099C12.0849 25.1904 12.1064 25.2815 12.153 25.3604C12.1996 25.4392 12.269 25.5021 12.3521 25.5405C12.4352 25.579 12.5281 25.5913 12.6183 25.5758C12.7086 25.5603 12.792 25.5177 12.8575 25.4537L16.1161 22.2492L22.0736 26.7584C22.7154 27.2448 23.6453 26.902 23.8181 26.1157L27.9662 7.28126C28.203 6.20697 27.1497 5.29999 26.123 5.69313L2.93469 14.5727C2.20691 14.8516 2.22703 15.8875 2.96395 16.138Z" fill="#ACACAC"/>
</svg>
